<svg width="396" height="476" viewBox="0 0 396 476" fill="none" xmlns="http://www.w3.org/2000/svg">
<path d="M110.373 173.432C110.113 173.37 109.869 173.226 109.685 173.006L98.161 159.049C97.748 158.546 97.8131 157.84 98.312 157.47C98.8104 157.102 99.5471 157.206 99.9656 157.71L111.489 171.668C111.902 172.17 111.837 172.876 111.338 173.247C111.057 173.453 110.705 173.509 110.373 173.432Z" fill="#F05050"/>
<path d="M98.059 183.186C97.9997 183.173 97.9386 183.154 97.8807 183.133L75.4961 174.392C74.8963 174.158 74.582 173.518 74.795 172.965C75.008 172.411 75.6654 172.151 76.2678 172.386L98.6524 181.126C99.2522 181.361 99.5665 182 99.3535 182.554C99.1627 183.052 98.6069 183.312 98.059 183.186Z" fill="#F05050"/>
<path d="M310.659 92.9702C307.525 92.2357 305.444 89.2159 306.02 86.2401C306.596 83.2643 309.616 81.4402 312.75 82.1747C315.884 82.9093 317.966 85.929 317.389 88.9048C316.813 91.8807 313.793 93.7048 310.659 92.9702ZM312.324 84.372C310.467 83.9367 308.679 85.017 308.337 86.7831C307.995 88.5493 309.227 90.3377 311.085 90.773C312.942 91.2083 314.733 90.1286 315.075 88.3625C315.417 86.5963 314.182 84.8073 312.324 84.372Z" fill="#7FCACF"/>
<path d="M301.755 334.365L317.731 310.745L336.336 337.212L311.733 359.848L301.755 334.365Z" fill="#7FCACF"/>
<path d="M294.662 60.8429L303.661 55.417L312.873 68.7562L300.572 80.0289L294.662 60.8429Z" fill="#F7D372"/>
<path d="M95.5714 75.5765L114.248 57.4558L126.677 82.509L103.777 109.577L95.5714 75.5765Z" fill="#F7D372"/>
<path d="M107.748 65.2559L117.465 44.5601L118.556 71.9029L107.748 65.2559Z" fill="#F7D372"/>
<path d="M100.884 95.856L101.394 120.622L113.426 94.0477L100.884 95.856Z" fill="#F7D372"/>
<path d="M125.476 80.2484L144.433 89.7241L119.549 90.4375L125.476 80.2484Z" fill="#F7D372"/>
<path d="M98.1951 74.4928L75.6727 74.6847L99.9888 86.3973L98.1951 74.4928Z" fill="#F7D372"/>
<path d="M260.078 452.609C220.298 456.354 164.454 441.726 124.24 420.773L145.092 313.101L280.93 344.937L260.078 452.609Z" fill="#F7989C"/>
<path d="M157.957 393.249C50.395 294.034 57.2632 258.598 92.3217 204.67C117.788 165.496 133.965 198.184 128.289 225.548C122.863 251.71 118.698 257.085 118.698 257.085C130.751 253.979 232.456 283.287 241.164 347.88C248.943 405.604 157.957 393.249 157.957 393.249Z" fill="#F7989C"/>
<path d="M118.836 181.621C119.688 189.432 140.631 204.641 172.473 188.526C204.315 172.411 206.993 239.436 187.517 251.817C172.762 253.691 158.769 259.171 152.624 290.883C146.478 322.596 286.408 341.787 286.408 341.787C286.408 341.787 297.463 273.092 309.754 209.668C322.045 146.243 295.486 140.108 280.428 141.494C280.428 141.494 271.387 120.838 251.64 124.984C235.169 128.44 231.255 162.285 231.255 162.285C231.255 162.285 194.101 124.225 169.622 138.383C145.143 152.536 117.064 165.368 118.836 181.621Z" fill="#F7989C"/>
<path d="M209.629 205.085C210.589 196.453 206.608 181.504 194.894 183.049C191.601 183.482 187.986 184.694 184.376 186.242C196.156 187.852 201.338 204.629 200.708 221.097C205.541 216.817 208.942 211.272 209.629 205.085Z" fill="#283071"/>
<path d="M140.859 186.779C140.634 186.728 140.416 186.614 140.238 186.445C139.753 185.979 139.738 185.252 140.201 184.82C140.343 184.686 154.461 171.494 153.785 162.586C153.642 160.697 152.835 159.195 151.315 157.991C150.785 157.57 150.69 156.844 151.105 156.368C151.519 155.894 152.281 155.845 152.814 156.267C154.876 157.902 156.02 160.018 156.212 162.561C156.964 172.487 142.572 185.944 141.958 186.51C141.664 186.781 141.248 186.869 140.859 186.779Z" fill="#283071"/>
<path d="M101.365 220.733C99.1522 220.215 96.9205 219.217 94.6834 217.743C94.1332 217.379 93.9652 216.674 94.3108 216.166C94.6541 215.654 95.3854 215.542 95.9306 215.902C100.084 218.638 104.172 219.498 108.083 218.458C118.555 215.669 124.803 200.382 124.864 200.227C125.095 199.659 125.769 199.4 126.379 199.658C126.988 199.915 127.295 200.581 127.067 201.153C126.799 201.821 120.368 217.567 108.841 220.641C106.387 221.294 103.888 221.324 101.365 220.733Z" fill="#283071"/>
<path d="M217.631 258.597C216.964 258.454 216.495 257.876 216.577 257.268C216.666 256.591 225.657 189.422 230.517 160.473C230.62 159.847 231.279 159.444 231.986 159.577C232.68 159.664 233.184 160.32 233.077 160.945C228.224 189.862 219.236 256.996 219.147 257.672C219.062 258.301 218.418 258.722 217.708 258.608C217.682 258.608 217.655 258.602 217.631 258.597Z" fill="#283071"/>
<path d="M254.301 270.655C253.619 270.511 253.141 269.928 253.227 269.32C253.868 264.822 269.079 158.968 279.077 139.087C279.364 138.516 280.14 138.277 280.811 138.568C281.48 138.854 281.792 139.551 281.504 140.122C271.654 159.713 256.004 268.64 255.848 269.736C255.758 270.366 255.1 270.783 254.376 270.668C254.351 270.662 254.326 270.66 254.301 270.655Z" fill="#283071"/>
<path d="M233.998 266.815C233.909 266.795 233.82 266.764 233.732 266.723C233.537 266.629 213.807 257.282 197.248 253.116C196.626 252.958 196.225 252.362 196.356 251.783C196.486 251.206 196.997 250.898 197.72 251.02C214.525 255.251 234.476 264.703 234.674 264.798C235.256 265.074 235.516 265.729 235.256 266.261C235.035 266.713 234.508 266.931 233.998 266.815Z" fill="#283071"/>
<path d="M220.883 353.561C220.344 353.435 219.933 352.962 219.92 352.416C219.262 316.892 184.563 281.989 161.316 269.582C160.732 269.271 160.495 268.579 160.784 268.038C161.073 267.494 161.784 267.314 162.36 267.618C186.124 280.3 221.598 316.053 222.273 352.514C222.284 353.139 221.765 353.623 221.118 353.597C221.038 353.592 220.96 353.58 220.883 353.561Z" fill="#283071"/>
<path d="M85.4869 272.029C85.4003 272.009 85.3129 271.978 85.2297 271.941L73.458 266.376C72.8723 266.1 72.6059 265.434 72.8617 264.892C73.1175 264.35 73.8039 264.139 74.3874 264.412L86.1591 269.976C86.7448 270.253 87.0112 270.918 86.7554 271.46C86.5377 271.924 86.0042 272.149 85.4869 272.029Z" fill="white"/>
<path d="M229.026 350.98C228.899 350.95 228.771 350.898 228.652 350.827C228.087 350.484 227.893 349.779 228.216 349.255C228.496 348.804 235.192 338.179 245.542 337.614C246.192 337.577 246.773 338.058 246.851 338.684C246.925 339.309 246.464 339.844 245.815 339.88C236.657 340.38 230.322 350.403 230.26 350.503C230.007 350.914 229.503 351.092 229.026 350.98Z" fill="#283071"/>
<path d="M85.7761 259.237C85.7274 259.226 85.6765 259.211 85.6239 259.191L78.0044 256.398C77.3974 256.176 77.0642 255.536 77.2622 254.971C77.4602 254.406 78.0931 254.119 78.7213 254.349L86.3408 257.142C86.9478 257.364 87.281 258.004 87.083 258.569C86.9021 259.09 86.3363 259.366 85.7761 259.237Z" fill="white"/>
</svg>
