<svg width="406" height="481" viewBox="0 0 406 481" fill="none" xmlns="http://www.w3.org/2000/svg">
<path d="M90.0607 166.25C89.7974 166.193 89.5532 166.048 89.3731 165.82L78.0943 151.386C77.6901 150.866 77.7795 150.117 78.2997 149.71C78.8194 149.306 79.5661 149.395 79.9759 149.915L91.2547 164.349C91.6589 164.869 91.5695 165.618 91.0493 166.025C90.7566 166.252 90.3962 166.322 90.0607 166.25Z" fill="#F05050"/>
<path d="M77.4866 176.332C77.4256 176.319 77.363 176.3 77.3039 176.278L54.4389 167.341C53.8263 167.101 53.5232 166.409 53.7629 165.796C54.0026 165.183 54.692 164.88 55.3074 165.12L78.1723 174.058C78.785 174.297 79.0881 174.989 78.8484 175.602C78.6335 176.153 78.0493 176.454 77.4866 176.332Z" fill="#F05050"/>
<path d="M297.512 83.1174C294.355 82.4353 292.34 79.3104 293.022 76.1531C293.704 72.9957 296.829 70.9811 299.987 71.6632C303.144 72.3452 305.158 75.4701 304.476 78.6274C303.794 81.7848 300.67 83.7994 297.512 83.1174ZM299.483 73.9945C297.612 73.5903 295.761 74.7834 295.356 76.6573C294.951 78.5312 296.145 80.3818 298.016 80.786C299.887 81.1903 301.74 79.9977 302.145 78.1238C302.55 76.2499 301.354 74.3987 299.483 73.9945Z" fill="#7FCACF"/>
<path d="M95.8029 83.5782L112.614 58.3695L130.442 85.5454L104.999 109.977L95.8029 83.5782Z" fill="#F7D372"/>
<path d="M281.577 49.8771L290.82 43.9181L299.669 57.6444L286.91 69.8362L281.577 49.8771Z" fill="#F7D372"/>
<path d="M299.96 309.436L319.241 290.331L331.289 316.204L307.546 344.67L299.96 309.436Z" fill="#F7D372"/>
<path d="M312.116 298.721L322.324 277.105L322.844 305.469L312.116 298.721Z" fill="#F7D372"/>
<path d="M305.298 330.278L305.288 355.965L317.927 328.228L305.298 330.278Z" fill="#F7D372"/>
<path d="M330.587 314.067L349.91 323.78L324.263 324.887L330.587 314.067Z" fill="#F7D372"/>
<path d="M302.204 307.936L278.987 308.459L303.797 320.466L302.204 307.936Z" fill="#F7D372"/>
<path d="M242.159 454.86C201.568 460.004 145.234 446.195 105.008 425.232L129.739 310.748L266.89 340.376L242.159 454.86Z" fill="#F7989C"/>
<path d="M136.449 395.544C30.6797 294.194 38.7925 256.653 76.0731 198.791C103.154 156.759 118.483 190.721 111.841 219.723C105.491 247.449 101.096 253.237 101.096 253.237C113.41 249.607 215.519 277.471 222.241 345.273C228.246 405.864 136.449 395.544 136.449 395.544Z" fill="#F7989C"/>
<path d="M102.476 176.728C103.084 184.926 123.789 200.317 156.544 182.408C189.299 164.5 189.832 234.98 169.715 248.592C154.719 251.001 140.376 257.185 133.125 290.752C125.873 324.319 266.89 340.376 266.89 340.376C266.89 340.376 280.314 267.731 294.817 200.597C309.32 133.463 282.636 127.792 267.349 129.698C267.349 129.698 258.868 108.22 238.745 113.169C221.96 117.296 216.898 153.042 216.898 153.042C216.898 153.042 180.526 114.075 155.288 129.705C130.05 145.329 101.211 159.67 102.476 176.728Z" fill="#F7989C"/>
<path d="M192.619 198.633C193.865 189.548 190.34 173.98 178.489 175.947C175.158 176.498 171.478 177.876 167.79 179.607C179.605 180.949 184.282 198.399 183.113 215.697C188.121 211.063 191.726 205.145 192.619 198.633Z" fill="#283071"/>
<path d="M121.887 180.321C121.668 180.274 121.458 180.162 121.288 179.991C120.827 179.52 120.837 178.765 121.305 178.303C121.449 178.161 135.742 164.054 135.367 154.816C135.288 152.858 134.544 151.319 133.09 150.112C132.584 149.689 132.514 148.937 132.937 148.431C133.359 147.927 134.109 147.854 134.618 148.277C136.591 149.919 137.646 152.085 137.752 154.722C138.169 165.017 123.597 179.405 122.976 180.011C122.678 180.3 122.267 180.403 121.887 180.321Z" fill="#283071"/>
<path d="M80.8899 215.685C78.6584 215.203 76.423 214.216 74.1975 212.725C73.6502 212.357 73.5025 211.618 73.8703 211.07C74.2358 210.52 74.9828 210.379 75.5251 210.743C79.6568 213.51 83.7838 214.297 87.7919 213.083C98.5259 209.825 105.374 193.489 105.442 193.324C105.695 192.717 106.388 192.423 107 192.677C107.61 192.931 107.901 193.626 107.65 194.236C107.356 194.95 100.307 211.776 88.491 215.366C85.9762 216.128 83.4347 216.235 80.8899 215.685Z" fill="#283071"/>
<path d="M200.55 254.385C199.94 254.254 199.526 253.668 199.622 253.039C199.727 252.339 210.269 182.812 215.721 152.822C215.837 152.174 216.459 151.743 217.106 151.862C217.743 151.936 218.185 152.6 218.066 153.248C212.622 183.204 202.084 252.695 201.979 253.394C201.879 254.046 201.272 254.495 200.62 254.395C200.597 254.396 200.572 254.39 200.55 254.385Z" fill="#283071"/>
<path d="M238.663 266.864C238.05 266.731 237.638 266.14 237.737 265.511C238.469 260.859 255.814 151.369 265.531 130.642C265.811 130.047 266.521 129.783 267.118 130.068C267.713 130.348 267.971 131.059 267.692 131.655C258.118 152.078 240.272 264.748 240.094 265.881C239.991 266.532 239.381 266.978 238.73 266.875C238.708 266.87 238.685 266.868 238.663 266.864Z" fill="#283071"/>
<path d="M218.084 262.873C217.992 262.854 217.9 262.822 217.811 262.78C217.611 262.681 197.493 252.942 180.479 248.819C179.84 248.664 179.445 248.019 179.601 247.376C179.757 246.737 180.297 246.384 181.042 246.498C198.309 250.684 218.653 260.533 218.855 260.632C219.449 260.92 219.695 261.634 219.407 262.228C219.161 262.732 218.607 262.987 218.084 262.873Z" fill="#283071"/>
<path d="M202.793 352.648C202.249 352.531 201.847 352.043 201.852 351.467C202.342 313.982 168.239 278.163 145.033 265.755C144.45 265.443 144.232 264.72 144.543 264.14C144.854 263.557 145.582 263.346 146.157 263.65C169.879 276.333 204.742 313.027 204.239 351.501C204.23 352.161 203.686 352.687 203.03 352.679C202.949 352.676 202.87 352.665 202.793 352.648Z" fill="#283071"/>
<path d="M64.5093 268.266C64.4206 268.247 64.3315 268.216 64.247 268.178L52.2936 262.494C51.6989 262.212 51.4467 261.498 51.729 260.904C52.0112 260.309 52.7265 260.06 53.3191 260.339L65.2724 266.023C65.8672 266.305 66.1193 267.018 65.8371 267.613C65.5968 268.121 65.0387 268.381 64.5093 268.266Z" fill="white"/>
<path d="M213.147 350.324C213.019 350.296 212.891 350.245 212.773 350.173C212.212 349.829 212.038 349.092 212.382 348.531C212.681 348.047 219.811 336.656 230.314 335.753C230.974 335.696 231.547 336.185 231.605 336.842C231.661 337.498 231.176 338.075 230.517 338.133C221.222 338.931 214.479 349.677 214.412 349.785C214.143 350.226 213.626 350.427 213.147 350.324Z" fill="#283071"/>
<path d="M64.8646 255.029C64.8147 255.018 64.7627 255.004 64.709 254.983L56.9396 252.173C56.3206 251.95 55.9985 251.265 56.2221 250.646C56.4458 250.027 57.1089 249.697 57.7495 249.928L65.5189 252.738C66.1379 252.962 66.46 253.647 66.2364 254.266C66.0318 254.837 65.4384 255.152 64.8646 255.029Z" fill="white"/>
</svg>
