<svg width="368" height="513" viewBox="0 0 368 513" fill="none" xmlns="http://www.w3.org/2000/svg">
<path d="M271.408 338.264C270.384 336.862 269.122 335.305 267.713 333.654C271.739 317.671 265.83 300.07 252.418 290.791C241.726 283.39 228.678 281.725 216.1 284.73C190.461 262.495 166.145 242.885 166.145 242.885C166.145 242.885 173.693 194.55 161.854 181.897C150.73 170.009 135.823 178.347 127.841 200.174C123.328 196.288 115.968 194.395 104.046 199.911C93.583 204.751 90.5741 220.049 90.6887 239.426C88.8884 239.956 86.9626 240.664 84.8672 241.634C63.3157 251.601 73.3543 305.892 77.2737 348.948C80.5636 397.483 153.624 406.01 180.108 431.717C180.108 431.717 298.738 389.985 297.151 367.399C295.564 344.812 290.049 363.799 271.408 338.264Z" fill="#F7989C"/>
<path d="M139.224 246.672C148.777 255.793 167.019 259.901 175.777 250.55C168.633 244.72 164.159 241.142 164.159 241.142C164.159 241.142 171.852 192.408 159.805 179.646C148.481 167.653 133.307 176.052 125.176 198.061C132.211 211.556 138.12 237.513 139.224 246.672Z" fill="#283071"/>
<path d="M315.534 445.731C280.929 465.979 238.424 476.976 188.023 478.722L169.663 394.061L297.173 361.07L315.534 445.731Z" fill="#F7989C"/>
<path d="M149.299 342.024C148.998 342.1 148.671 342.072 148.391 341.923L118.839 326.133C118.498 325.952 118.286 325.62 118.27 325.242C116.672 290.348 113.1 249.087 99.5497 239.645C96.9667 237.846 94.1757 237.31 91.0123 238.003C90.3425 238.151 89.7055 237.766 89.5905 237.145C89.4749 236.522 89.9628 235.886 90.5973 235.753C94.4457 234.907 97.9791 235.58 101.101 237.756C115.259 247.624 118.975 286.998 120.706 324.393L149.716 339.893C150.291 340.202 150.462 340.903 150.096 341.464C149.905 341.749 149.615 341.944 149.299 342.024Z" fill="#283071"/>
<path d="M170.011 307.64C169.669 307.725 169.299 307.677 169.002 307.484L141.584 289.587C141.295 289.398 141.116 289.092 141.099 288.754C141.009 287.056 140.935 284.851 140.846 282.229C140.287 265.866 139.245 235.407 131.289 208.456C131.108 207.851 131.502 207.191 132.168 206.986C132.876 206.783 133.519 207.105 133.697 207.711C141.729 234.917 142.775 265.55 143.335 282.007C143.416 284.347 143.484 286.35 143.561 287.96L170.52 305.558C171.067 305.915 171.169 306.635 170.749 307.167C170.56 307.408 170.294 307.569 170.011 307.64Z" fill="#283071"/>
<path d="M73.9588 278.663C73.4172 278.802 72.8547 278.573 72.621 278.089C72.3514 277.526 72.6251 276.832 73.2305 276.54C85.9937 270.351 82.7424 246.271 82.7085 246.03C82.6229 245.407 83.079 244.79 83.7393 244.678C84.3966 244.553 85.0003 244.957 85.0883 245.576C85.2378 246.635 88.6075 271.588 74.2043 278.57C74.1257 278.611 74.0417 278.641 73.9588 278.663Z" fill="white"/>
<path d="M143.616 351.24C143.313 351.318 142.985 351.284 142.71 351.122C142.173 350.801 142.034 350.106 142.403 349.565L182.395 291.066C182.765 290.528 183.502 290.351 184.039 290.67C184.576 290.991 184.715 291.686 184.346 292.227L144.354 350.726C144.174 350.988 143.907 351.165 143.616 351.24Z" fill="#283071"/>
<path d="M213.572 380.818C213.005 380.964 212.427 380.695 212.228 380.171C211.887 379.26 203.514 357.932 173.612 368.349C172.995 368.575 172.339 368.268 172.151 367.684C171.966 367.099 172.318 366.454 172.94 366.235C205.061 355.066 214.355 379.05 214.445 379.292C214.657 379.864 214.333 380.525 213.723 380.767C213.672 380.786 213.621 380.805 213.572 380.818Z" fill="#283071"/>
<path d="M207.897 192.333L143.12 209.104L129.824 147.803L194.601 131.033L207.897 192.333ZM154.3 192.149L190.94 182.663L183.419 147.988L146.779 157.474L154.3 192.149Z" fill="#F7D372"/>
<path d="M152.61 67.0463L137.651 70.74L154.812 147.074L169.771 143.38L152.61 67.0463Z" fill="#F7D372"/>
<path d="M149.043 77.4539L126.697 83.239L131.284 104.386L153.629 98.6011L149.043 77.4539Z" fill="#F7D372"/>
<path d="M190.789 181.968L191.183 183.782L172.651 188.544C172.476 193.137 172.676 197.711 173.346 202.156L207.897 193.279L204.963 179.798C200.246 180.613 195.521 181.347 190.789 181.968Z" fill="#283071"/>
<path d="M243.981 311.597L239.399 239.77C239.399 239.77 187.809 225.704 178.871 200.435C168.66 171.559 203.115 175.479 232.984 185.556C262.853 195.637 284.497 200.507 298.09 235.532C307.712 260.323 332.253 352.174 288.656 390.419C245.058 428.666 243.981 311.597 243.981 311.597Z" fill="#F7989C"/>
<path d="M209.456 188.647C202.945 190.319 193.811 190.102 184.098 181.863C183.633 181.468 183.613 180.765 184.06 180.293C184.504 179.821 185.243 179.757 185.709 180.155C202.7 194.563 217.105 182.867 217.709 182.363C218.208 181.949 218.941 181.972 219.349 182.424C219.754 182.875 219.683 183.579 219.182 183.999C219.108 184.061 215.359 187.13 209.456 188.647Z" fill="white"/>
<path d="M220.894 366.983C220.307 367.134 219.708 366.853 219.514 366.308C219.352 365.849 203.61 320.15 244.574 288.756C245.114 288.346 245.863 288.41 246.255 288.891C246.649 289.376 246.538 290.099 246.005 290.51C206.464 320.814 221.637 364.999 221.796 365.441C222.006 366.029 221.664 366.7 221.037 366.937C220.988 366.956 220.941 366.971 220.894 366.983Z" fill="#283071"/>
<path d="M256.507 242.66C256.36 242.697 256.205 242.709 256.049 242.689L238.311 240.484C237.677 240.407 237.266 239.845 237.388 239.233C237.51 238.62 238.128 238.189 238.759 238.267L256.494 240.475C257.128 240.552 257.539 241.114 257.417 241.727C257.325 242.186 256.953 242.545 256.507 242.66Z" fill="white"/>
<path d="M331.558 399.567C331.337 399.624 331.101 399.623 330.874 399.55C330.263 399.353 329.966 398.705 330.212 398.105L335.761 384.546C336.006 383.943 336.7 383.617 337.314 383.816C337.926 384.013 338.222 384.661 337.977 385.261L332.427 398.82C332.27 399.198 331.935 399.469 331.558 399.567Z" fill="#7FCACF"/>
<path d="M170.93 69.1104C170.613 69.1925 170.266 69.1515 169.986 68.9651C169.463 68.6235 169.357 67.921 169.747 67.3954L179.942 53.6921C180.332 53.1665 181.071 53.016 181.594 53.3604C182.117 53.7021 182.223 54.4046 181.833 54.9302L171.638 68.6334C171.457 68.8779 171.203 69.0396 170.93 69.1104Z" fill="#7FCACF"/>
<path d="M155.824 54.6781C155.614 54.7321 155.393 54.7333 155.178 54.6743C154.557 54.4994 154.235 53.8628 154.458 53.2558L163.446 28.8683C163.672 28.2607 164.355 27.9081 164.977 28.0857C165.597 28.2606 165.92 28.8972 165.697 29.5042L156.709 53.8917C156.562 54.2909 156.219 54.5762 155.824 54.6781Z" fill="#7FCACF"/>
<path d="M109.623 97.1464C109.382 97.2087 109.126 97.1997 108.889 97.1075L95.657 91.9844C95.0684 91.7569 94.8158 91.1004 95.091 90.5189C95.3698 89.9394 96.0672 89.6517 96.6558 89.8792L109.887 95.0022C110.476 95.2297 110.729 95.8862 110.453 96.4677C110.29 96.8145 109.977 97.0548 109.623 97.1464Z" fill="#7FCACF"/>
<path d="M113.77 429.468C113.473 429.545 113.155 429.514 112.881 429.36L101.079 422.628C100.815 422.478 100.636 422.233 100.573 421.94C100.509 421.648 100.572 421.34 100.743 421.077L108.525 409.275C108.884 408.73 109.619 408.54 110.164 408.851L121.966 415.583C122.51 415.893 122.661 416.589 122.302 417.134L114.52 428.936C114.341 429.206 114.067 429.391 113.77 429.468ZM103.369 421.216L113.196 426.821L119.676 416.995L109.849 411.389L103.369 421.216Z" fill="#7FCACF"/>
</svg>
