<svg width="334" height="365" viewBox="0 0 334 365" fill="none" xmlns="http://www.w3.org/2000/svg">
<path d="M159.73 226.733C149.903 337.68 196.58 324.539 214.276 324.504C231.971 324.469 295.133 276.532 295.133 276.532L266.743 205.953L159.73 226.733Z" fill="#283071"/>
<path d="M274.993 223.065L194.672 229.42L157.475 232.364C155.212 177.993 152.482 96.9093 152.482 96.9093C152.515 96.3281 152.55 95.7496 152.585 95.1792C152.68 93.7249 152.79 92.3084 152.915 90.9297C152.963 90.4107 153.015 89.8998 153.063 89.3943C153.069 89.3619 153.072 89.3321 153.074 89.2997C153.131 88.7401 153.19 88.1914 153.255 87.6426C153.282 87.3966 153.312 87.156 153.342 86.9127C153.374 86.6478 153.407 86.3829 153.439 86.118C158.316 47.056 176.619 40.6574 192.185 49.5403C192.185 49.5403 208.612 28.828 229.433 46.1531C235.642 35.0536 260.796 29.2091 266.476 54.3683C272.993 83.2471 274.993 223.065 274.993 223.065Z" fill="#283071"/>
<path d="M198.31 287.443C196.469 286.123 192.939 284.453 191.874 283.655C187.187 280.146 182.459 276.697 176.587 275.535C170.583 274.345 164.641 276.156 159.962 279.719C159.421 275.91 158.497 256.844 157.475 232.364C155.213 177.993 152.482 96.9094 152.482 96.9094C152.515 96.3282 152.55 95.7497 152.585 95.1793C152.68 93.725 152.79 92.3085 152.915 90.9298C152.963 90.4108 153.015 89.8999 153.063 89.3944C153.069 89.3619 153.072 89.3322 153.074 89.2998C153.266 87.4183 153.488 85.6098 153.739 83.8635C164.585 86.383 172.824 94.563 178.193 104.825C185.473 118.738 184.543 134.541 185.775 149.753C186.254 155.627 186.973 161.228 189.555 166.591C192.555 172.822 197.083 177.885 197.897 185.006C199.535 199.354 196.161 214.879 194.672 229.42C194.52 230.896 194.388 232.361 194.283 233.816C193.355 246.588 193.988 258.985 196.464 271.534C197.121 274.862 197.827 278.197 198.137 281.579C198.305 283.398 197.956 285.667 198.31 287.443Z" fill="#12173F"/>
<path d="M206.125 292.646C228.511 220.867 282.017 199.555 282.017 199.555C282.017 199.555 277.102 121.65 306.586 111.748C336.071 101.846 325.15 164.193 328.426 204.815C331.702 245.437 315.323 265.638 285.839 320.782L206.125 292.646Z" fill="#283071"/>
<path d="M334 304.873C316.58 337.815 288.575 366.21 255.698 383.175L196.607 324.085L274.91 245.783L334 304.873Z" fill="#283071"/>
<path d="M313.242 307.1C318.327 305.043 322.003 300.564 324.971 295.847L308.484 279.36C307.665 280.749 306.87 282.149 306.105 283.571C303.415 288.556 298.028 297.39 299.201 303.386C300.339 309.201 308.654 308.958 313.242 307.1Z" fill="#12173F"/>
<path d="M221.277 285.553C220.639 285.553 220.123 285.037 220.123 284.399C220.123 237.459 268.546 207.029 274.066 203.712C274.612 203.393 275.323 203.563 275.65 204.107C275.98 204.653 275.802 205.361 275.256 205.691C269.846 208.937 222.429 238.73 222.429 284.399C222.431 285.037 221.915 285.553 221.277 285.553Z" fill="white"/>
<path d="M295.133 205.856C294.992 205.856 294.849 205.831 294.711 205.777L281.595 200.628C281.003 200.392 280.711 199.725 280.941 199.133C281.176 198.538 281.849 198.246 282.436 198.479L295.552 203.628C296.144 203.863 296.436 204.531 296.206 205.123C296.025 205.58 295.592 205.856 295.133 205.856Z" fill="white"/>
<path d="M229.427 173.763C228.844 173.763 228.341 173.319 228.284 172.725C228.195 171.843 219.539 84.2177 228.306 45.8964C228.446 45.28 229.06 44.8773 229.687 45.0286C230.309 45.1692 230.695 45.791 230.555 46.41C221.875 84.3636 230.49 171.619 230.576 172.495C230.641 173.128 230.179 173.693 229.544 173.757C229.506 173.763 229.465 173.763 229.427 173.763Z" fill="white"/>
<path d="M192.182 169.927C191.571 169.927 191.06 169.448 191.031 168.832C190.841 165.05 186.448 75.9214 191.044 49.3484C191.155 48.7213 191.76 48.3023 192.377 48.4077C193.004 48.5185 193.426 49.116 193.317 49.7404C188.765 76.0647 193.285 167.791 193.331 168.716C193.363 169.354 192.874 169.894 192.239 169.924C192.223 169.927 192.201 169.927 192.182 169.927Z" fill="white"/>
<path d="M248.026 180.167C247.899 180.167 247.772 180.145 247.645 180.102C247.309 179.983 213.703 168.394 177.833 172.2C177.206 172.271 176.633 171.808 176.565 171.176C176.498 170.543 176.957 169.976 177.59 169.908C213.978 166.05 248.066 177.804 248.404 177.926C249.004 178.134 249.323 178.796 249.113 179.394C248.948 179.869 248.502 180.167 248.026 180.167Z" fill="white"/>
<path d="M325.869 148.909C325.358 148.909 324.89 148.568 324.755 148.052C324.62 147.536 321.411 135.282 323.065 121.079C323.141 120.444 323.728 119.998 324.344 120.065C324.977 120.138 325.431 120.711 325.358 121.344C323.752 135.117 326.95 147.336 326.985 147.457C327.15 148.071 326.782 148.706 326.169 148.868C326.066 148.896 325.963 148.909 325.869 148.909Z" fill="white"/>
<path d="M196.605 289.711C196.234 289.711 195.872 289.532 195.65 289.205C195.588 289.113 189.252 279.933 177.455 277.214C176.833 277.07 176.449 276.451 176.59 275.829C176.733 275.21 177.347 274.821 177.974 274.964C190.685 277.892 197.286 287.505 197.564 287.913C197.918 288.44 197.781 289.156 197.253 289.513C197.053 289.646 196.829 289.711 196.605 289.711Z" fill="white"/>
<path d="M17.3279 294.833C-2.11392 201.782 16.8061 202.158 36.7696 145.925C49.4154 110.301 67.3569 127.018 74.261 149.828C82.587 177.347 38.8728 304.376 17.3279 294.833Z" fill="#F7989C"/>
<path d="M57.936 187.668C54.0217 190.839 48.599 192.621 45.0983 196.173C41.7246 199.595 40.7704 204.65 40.3649 209.248C39.4756 219.312 41.8571 232.102 42.9411 242.079C51.6807 221.929 60.2284 197.073 66.4972 179.385C63.8291 182.359 61.0177 185.17 57.936 187.668Z" fill="#12173F"/>
<path d="M0 309.982L18.9038 291.865C18.9038 291.865 33.077 271.223 41.7192 245.783C51.8186 216.058 56.6736 180.232 57.5387 169.975C59.4147 147.776 57.3846 70.6743 74.261 56.0632C91.1374 41.4521 103.324 61.1372 103.324 61.1372C101.994 57.5094 130.299 45.3151 137.182 75.6942C137.182 75.6942 161.603 63.5431 169.104 100.972C176.603 138.401 169.104 276.811 169.104 276.811C169.104 276.811 189.03 320.779 149.449 330.732L74.261 392.207C36.4506 374.676 11.2915 347.574 0 309.982Z" fill="#F7989C"/>
<path d="M93.8406 180.721C93.2135 180.721 92.6998 180.218 92.6863 179.591C92.6025 175.158 90.7697 70.9232 102.548 60.2805C103.018 59.8561 103.748 59.8885 104.175 60.3643C104.6 60.8373 104.564 61.5645 104.091 61.9916C94.9597 70.2447 94.4245 149.647 94.9922 179.545C95.003 180.183 94.4975 180.71 93.8622 180.721C93.8541 180.721 93.8487 180.721 93.8406 180.721Z" fill="#12173F"/>
<path d="M133.351 191.253C132.738 191.253 132.229 190.774 132.2 190.155C131.992 185.955 127.266 87.1427 136.255 75.0078C136.633 74.4996 137.358 74.3941 137.868 74.7699C138.379 75.1483 138.487 75.8701 138.106 76.3837C131.305 85.5667 132.775 154.748 134.503 190.045C134.535 190.68 134.043 191.223 133.408 191.253C133.389 191.253 133.37 191.253 133.351 191.253Z" fill="#12173F"/>
<path d="M33.0094 261.627C32.7742 261.627 32.5363 261.554 32.3309 261.405C31.8146 261.032 31.7037 260.31 32.0768 259.794C52.3376 231.921 55.595 182.329 57.5387 125.156C57.5603 124.518 58.0712 124.034 58.7308 124.042C59.3688 124.064 59.8662 124.599 59.8446 125.234C57.8874 182.794 54.584 232.75 33.9393 261.151C33.7176 261.462 33.3662 261.627 33.0094 261.627Z" fill="#12173F"/>
<path d="M22.8127 205.356C22.5559 205.356 22.2964 205.269 22.0829 205.093L14.2624 198.695C13.7704 198.292 13.6974 197.568 14.1002 197.073C14.5029 196.578 15.2274 196.508 15.7221 196.911L23.5426 203.309C24.0346 203.712 24.1076 204.437 23.7048 204.931C23.4777 205.212 23.1479 205.356 22.8127 205.356Z" fill="white"/>
<path d="M33.4365 157.108C33.2581 157.108 33.0796 157.1 32.8985 157.084C32.266 157.024 31.7983 156.457 31.8605 155.824C31.9226 155.189 32.4903 154.754 33.1202 154.786C38.8673 155.41 42.7437 140.229 43.6628 134.893C43.7737 134.266 44.3765 133.841 44.9956 133.952C45.6227 134.063 46.0444 134.66 45.9363 135.285C45.5416 137.555 41.9166 157.108 33.4365 157.108Z" fill="white"/>
<path d="M89.3938 199.833C89.3046 199.833 89.21 199.822 89.1181 199.798C88.5017 199.644 88.1232 199.022 88.2746 198.4L90.394 189.82C90.5481 189.204 91.1698 188.828 91.7915 188.977C92.4079 189.131 92.7863 189.753 92.635 190.374L90.5156 198.954C90.3805 199.482 89.9101 199.833 89.3938 199.833Z" fill="#12173F"/>
<path d="M129.667 207.462C129.569 207.462 129.469 207.451 129.369 207.424C128.756 207.259 128.388 206.626 128.553 206.013L130.821 197.508C130.983 196.895 131.608 196.519 132.232 196.692C132.846 196.857 133.213 197.489 133.049 198.103L130.781 206.607C130.643 207.121 130.178 207.462 129.667 207.462Z" fill="#12173F"/>
<path d="M72.0092 90.4568C71.4253 90.4568 70.9225 90.0134 70.8657 89.4187C70.8008 88.7862 71.2631 88.2212 71.8984 88.1563C87.6313 86.583 88.2368 61.3725 88.2395 61.1157C88.2503 60.4858 88.7639 59.9803 89.3938 59.9803C89.4019 59.9803 89.4073 59.9803 89.4127 59.9803C90.0507 59.9912 90.5562 60.5156 90.5481 61.1509C90.5291 62.2754 89.9047 88.6699 72.1281 90.4487C72.0876 90.4568 72.047 90.4568 72.0092 90.4568Z" fill="#12173F"/>
<path d="M104.64 95.6146C104.167 95.6146 103.689 95.5903 103.202 95.5389C102.567 95.474 102.107 94.9064 102.175 94.2738C102.24 93.6385 102.807 93.1736 103.44 93.2466C106.37 93.552 108.89 92.7789 111.163 90.8731C119.084 84.2393 120.446 66.5114 120.457 66.3303C120.503 65.6951 121.057 65.2112 121.692 65.2625C122.327 65.3085 122.806 65.8599 122.76 66.4952C122.703 67.2629 121.319 85.3747 112.647 92.6383C110.287 94.6171 107.597 95.6146 104.64 95.6146Z" fill="#12173F"/>
<path d="M139.815 109.847C138.89 109.847 137.928 109.734 136.925 109.504C136.303 109.363 135.914 108.747 136.055 108.125C136.195 107.503 136.806 107.111 137.433 107.255C140.293 107.895 142.623 107.452 144.562 105.873C150.725 100.867 150.557 86.4965 150.555 86.3532C150.544 85.7153 151.052 85.1908 151.687 85.18C152.344 85.107 152.85 85.6774 152.861 86.3127C152.871 86.9507 153.039 101.959 146.016 107.666C144.232 109.117 142.156 109.847 139.815 109.847Z" fill="#12173F"/>
<path d="M117.51 26.8411C117.243 26.8411 116.975 26.7492 116.756 26.5627L102.569 14.3197C102.088 13.9034 102.037 13.1762 102.45 12.6923C102.872 12.2084 103.599 12.1598 104.078 12.5733L118.264 24.8164C118.746 25.2327 118.797 25.9598 118.383 26.4437C118.154 26.7059 117.832 26.8411 117.51 26.8411Z" fill="#F7D372"/>
<path d="M137.182 5.62341C136.738 5.62341 136.314 5.3666 136.125 4.93408L128.61 -12.2045C128.356 -12.7884 128.618 -13.4669 129.202 -13.7237C129.786 -13.9724 130.467 -13.7156 130.721 -13.1317L138.236 4.00687C138.49 4.59077 138.228 5.26929 137.644 5.52609C137.493 5.59097 137.336 5.62341 137.182 5.62341Z" fill="#F7D372"/>
<path d="M189.03 360.155C188.735 360.155 188.441 360.041 188.214 359.817C187.762 359.365 187.762 358.635 188.214 358.187L195.788 350.609C196.24 350.158 196.97 350.158 197.418 350.609C197.87 351.061 197.87 351.791 197.418 352.239L189.844 359.817C189.619 360.044 189.325 360.155 189.03 360.155Z" fill="#F7D372"/>
<path d="M196.605 344.77C196.299 344.77 196.005 344.649 195.788 344.432L190.387 339.029C189.936 338.577 189.936 337.847 190.387 337.399L195.788 331.998C196.24 331.546 196.97 331.546 197.418 331.998L202.819 337.399C203.271 337.85 203.271 338.58 202.819 339.029L197.418 344.432C197.205 344.649 196.91 344.77 196.605 344.77ZM192.834 338.215L196.605 341.989L200.376 338.215L196.605 334.444L192.834 338.215Z" fill="#F7D372"/>
</svg>
