<svg width="338" height="275" viewBox="0 0 338 275" fill="none" xmlns="http://www.w3.org/2000/svg">
<path d="M338 215.519L274.283 274.669L275.764 150.453L338 215.519Z" fill="#F7D372"/>
<path d="M280.041 171.417H100.169V253.708H280.041V171.417Z" fill="#F7D372"/>
<path d="M109.888 16.396L94.2296 30.9318L94.5951 0.405396L109.888 16.396Z" fill="#F05050"/>
<path d="M95.6443 5.55719H51.4427V25.78H95.6443V5.55719Z" fill="#F05050"/>
<path d="M204.216 125.19C235.139 141.05 211.068 181.902 201.965 186.674C199.519 225.42 162.882 231.158 135.493 229.899C125.661 229.463 118.35 227.598 113.045 225.396C105.248 222.175 101.711 218.205 100.718 216.896V216.873C100.525 216.63 100.402 216.46 100.402 216.46L80.7148 216.92L65.2641 217.283L58.8226 217.429C58.8226 217.429 52.3316 230.046 29.0365 229.562C-2.10529 228.933 -4.38055 210.334 -4.38055 210.334H-75.3055C-102.234 173.744 -91.2866 91.0227 -79.2029 72.547H193.127C226.205 71.7713 263.668 69.6162 262.819 91.1924C262.044 110.104 249.743 120.323 204.216 125.19Z" fill="#7FCACF"/>
<path d="M166.59 126.779C165.933 126.779 165.393 126.253 165.379 125.593C165.364 124.925 165.897 124.371 166.562 124.357C182.06 124.032 203.983 123.987 204.202 123.987H204.204C204.872 123.987 205.414 124.527 205.416 125.197C205.419 125.866 204.876 126.409 204.207 126.411C203.987 126.411 182.088 126.456 166.614 126.781C166.607 126.779 166.597 126.779 166.59 126.779Z" fill="#12173F"/>
<path d="M148.926 197.206C133.621 197.206 119.159 194.91 110.996 188.904C106.033 185.25 103.729 180.485 104.147 174.741C105.071 162.096 115.122 157.201 123.389 155.325C124.044 155.178 124.69 155.586 124.836 156.237C124.985 156.89 124.577 157.539 123.924 157.687C116.457 159.385 107.379 163.751 106.563 174.92C106.203 179.848 108.122 183.786 112.429 186.957C129.773 199.722 179.226 194.587 198.369 187.056C198.989 186.811 199.694 187.119 199.937 187.74C200.182 188.362 199.878 189.065 199.253 189.31C188.145 193.676 167.892 197.204 148.926 197.206Z" fill="#12173F"/>
<path d="M0.853758 177.424C0.184143 177.424 -0.358154 176.882 -0.358154 176.212C-0.358154 175.512 0.297311 174.998 0.950421 175C1.22393 175 1.49744 174.998 1.75208 174.979C76.6593 174.17 94.845 131.532 95.0195 131.103C95.168 130.735 95.4887 130.464 95.873 130.377C96.2526 130.289 96.6629 130.398 96.9553 130.662C97.1793 130.867 119.658 151.274 141.317 163.532C154.276 170.844 164.237 173.784 170.917 172.268C176.187 171.07 179.193 168.316 180.112 163.846C183.725 146.259 152.418 104.41 115.697 77.7341C115.155 77.3428 115.037 76.5859 115.431 76.0436C115.825 75.4989 116.584 75.3811 117.121 75.7772C151.439 100.709 186.686 143.88 182.484 164.334C181.374 169.757 177.66 173.22 171.452 174.63C164.178 176.281 153.625 173.256 140.127 165.64C121.109 154.877 101.508 137.936 96.5285 133.527C92.4377 141.338 70.1612 176.66 1.86053 177.396C1.5941 177.422 1.22629 177.424 0.853758 177.424Z" fill="#12173F"/>
<path d="M139.971 224.592C139.954 224.592 139.936 224.592 139.917 224.59C139.247 224.559 138.733 223.993 138.764 223.326C138.764 223.281 138.896 218.353 134.647 213.942C129.986 209.101 122.035 206.649 111.017 206.649C110.348 206.649 109.805 206.107 109.805 205.437C109.805 204.768 110.348 204.225 111.017 204.225C122.759 204.225 131.315 206.946 136.444 212.315C141.39 217.493 141.192 223.194 141.18 223.434C141.152 224.085 140.615 224.592 139.971 224.592Z" fill="#12173F"/>
<path d="M148.534 189.522C148.518 189.522 148.499 189.522 148.483 189.52C147.813 189.491 147.294 188.926 147.325 188.258C147.459 185.163 145.252 181.524 141.426 178.523C136.043 174.305 126.001 170.473 115.438 173.569C114.787 173.76 114.122 173.388 113.936 172.746C113.747 172.105 114.115 171.431 114.757 171.244C126.206 167.894 137.083 172.044 142.918 176.618C147.426 180.152 149.916 184.434 149.746 188.364C149.716 189.013 149.18 189.522 148.534 189.522Z" fill="#12173F"/>
<path d="M165.657 165.461C165.407 165.461 165.15 165.381 164.933 165.218C164.445 164.852 152.979 156.129 152.248 144.863C151.901 139.478 154.068 134.458 158.697 129.943C159.178 129.478 159.944 129.485 160.408 129.964C160.877 130.443 160.868 131.209 160.389 131.676C156.292 135.672 154.365 140.055 154.665 144.698C155.315 154.846 166.277 163.197 166.385 163.28C166.921 163.683 167.029 164.44 166.626 164.975C166.39 165.296 166.027 165.461 165.657 165.461Z" fill="#12173F"/>
<path d="M98.5467 92.4798C98.2685 92.4798 97.9855 92.3831 97.7592 92.1898C97.2499 91.7536 97.191 90.9896 97.6272 90.4827L105.252 81.5867C105.688 81.0775 106.457 81.0232 106.959 81.4547C107.469 81.8909 107.528 82.6548 107.091 83.1618L99.4662 92.0577C99.2281 92.336 98.8862 92.4798 98.5467 92.4798Z" fill="white"/>
<path d="M204.294 116.841C203.624 116.841 203.082 116.298 203.082 115.629V105.32C203.082 104.651 203.624 104.108 204.294 104.108C204.964 104.108 205.506 104.651 205.506 105.32V115.631C205.506 116.298 204.964 116.841 204.294 116.841Z" fill="white"/>
<path d="M113.191 189.216C103.189 193.719 98.7825 205.659 100.721 216.87C100.527 216.627 100.405 216.458 100.405 216.458L80.7171 216.917L65.2664 217.28C59.6242 210.209 49.9855 198.949 23.979 196.817C15.6489 196.138 2.76592 186.745 1.84637 176.186C78.3428 175.364 96.1418 131.558 96.1418 131.558C96.1418 131.558 110.307 144.441 127.137 156.015C116.532 158.22 104.375 165.241 105.634 177.325C106.144 182.364 109.147 186.238 113.191 189.216Z" fill="#12173F"/>
<path d="M57.1886 261.982C56.7572 261.982 56.3422 261.751 56.1229 261.345C55.807 260.758 56.0262 260.023 56.6157 259.704L71.873 251.49C72.4577 251.171 73.1957 251.393 73.514 251.983C73.83 252.57 73.6107 253.305 73.0212 253.624L57.7639 261.838C57.5824 261.935 57.382 261.982 57.1886 261.982Z" fill="#7FCACF"/>
<path d="M50.1482 48.389C46.8921 48.389 44.2419 45.7412 44.2419 42.4851C44.2419 39.229 46.8921 36.5812 50.1482 36.5812C53.4044 36.5812 56.0521 39.229 56.0521 42.4851C56.0521 45.7412 53.4044 48.389 50.1482 48.389ZM50.1482 39.0003C48.2266 39.0003 46.6634 40.5635 46.6634 42.4828C46.6634 44.402 48.2266 45.9652 50.1482 45.9652C52.0675 45.9652 53.6307 44.402 53.6307 42.4828C53.6307 40.5635 52.0698 39.0003 50.1482 39.0003Z" fill="#7FCACF"/>
<path d="M256.312 60.3218H243.287C242.618 60.3218 242.075 59.7795 242.075 59.1098C242.075 58.4402 242.618 57.8979 243.287 57.8979H256.312C256.981 57.8979 257.524 58.4402 257.524 59.1098C257.521 59.7795 256.979 60.3218 256.312 60.3218Z" fill="#7FCACF"/>
</svg>
