<svg width="311" height="286" viewBox="0 0 311 286" fill="none" xmlns="http://www.w3.org/2000/svg">
<path d="M164.344 300.996V128.519C164.344 128.519 169.181 40.8128 154.803 25.7668C141.808 12.1701 128.382 26.1336 128.382 26.1336C128.382 26.1336 124.061 8.51951 108.075 10.7207C92.089 12.9219 88.9095 33.086 88.9095 33.086C75.7997 17.8791 54.0165 28.5205 50.6309 54.5839C46.9622 82.8416 41.8012 127.76 41.8012 127.76C25.5911 145.281 -10.3844 176.775 2.87711 211.82C16.1386 246.865 63.9037 271.692 63.9037 271.692V302.982C88.7306 318.612 156.134 309.069 164.344 300.996Z" fill="#F7D372"/>
<path d="M156.123 303.374L150.978 130.974C150.978 130.974 143.527 43.4511 157.45 27.9815C170.032 14.0021 183.871 27.5603 183.871 27.5603C183.871 27.5603 187.665 9.82393 203.709 11.5496C219.754 13.2752 226.075 31.5619 226.075 31.5619C241.055 19.3783 255.816 30.8576 260.734 59.8332C265.504 87.9257 273.446 126.562 273.446 126.562C290.17 143.592 320.244 175.749 308.033 211.175C295.822 246.598 255.646 271.089 255.646 271.089L256.579 302.366C232.227 318.725 164.57 311.198 156.123 303.374Z" fill="#F7D372"/>
<path d="M86.688 135.081C86.6518 135.081 86.6156 135.079 86.5771 135.075C86.0041 135.014 85.5897 134.502 85.6508 133.927C85.7256 133.215 93.1172 62.4374 88.2551 35.2622C88.1532 34.696 88.5314 34.1525 89.0998 34.0506C89.6705 33.9487 90.2095 34.3269 90.3114 34.8953C95.2256 62.3604 87.8045 133.431 87.7275 134.146C87.6686 134.683 87.2157 135.081 86.688 135.081Z" fill="#12173F"/>
<path d="M127.711 130.088C127.695 130.088 127.68 130.088 127.661 130.088C127.086 130.061 126.64 129.574 126.667 128.999C126.697 128.362 129.534 64.9851 126.665 28.8171C126.62 28.2419 127.048 27.7391 127.623 27.6938C128.221 27.6576 128.701 28.0788 128.746 28.6518C131.627 64.9511 128.78 128.457 128.753 129.096C128.726 129.651 128.264 130.088 127.711 130.088Z" fill="#12173F"/>
<path d="M157.987 302.658C157.409 302.658 156.943 302.191 156.943 301.614V277.07C156.943 276.848 157.013 276.633 157.144 276.454C157.384 276.124 181.02 243.167 163.551 219.531C163.417 219.35 163.347 219.135 163.347 218.911V189.563C163.952 150.565 162.213 49.7331 156.098 31.3875C155.915 30.8395 156.211 30.2484 156.757 30.0672C157.31 29.8838 157.896 30.1805 158.077 30.7262C164.267 49.2937 166.04 150.488 165.435 189.579V218.569C182.556 242.207 161.354 274.056 159.033 277.399V301.614C159.031 302.191 158.564 302.658 157.987 302.658Z" fill="#12173F"/>
<path d="M190.787 128.546C190.445 128.546 190.196 128.435 189.952 127.509H189.857C189.852 127.411 189.861 127.316 189.884 127.226C189.34 124.805 188.774 118 187.196 98.9792C185.873 83.0477 184.028 58.2887 182.739 30.8145C182.712 30.2393 183.156 29.7502 183.733 29.723C184.313 29.6936 184.797 30.1397 184.825 30.7172C187.2 81.4149 191.535 124.341 191.904 127.183C191.924 127.255 191.936 127.332 191.94 127.411C191.967 127.987 191.521 128.512 190.946 128.539C190.892 128.544 190.839 128.546 190.787 128.546Z" fill="#12173F"/>
<path d="M231.084 126.41C230.565 126.41 230.117 126.025 230.049 125.5C229.97 124.879 222.107 63.1055 224.184 33.6226C224.224 33.0474 224.7 32.6058 225.298 32.6556C225.873 32.6964 226.306 33.1946 226.265 33.7698C224.204 63.0466 232.039 124.617 232.119 125.235C232.191 125.806 231.788 126.329 231.215 126.404C231.172 126.408 231.129 126.41 231.084 126.41Z" fill="#12173F"/>
<path d="M51.3827 135.983C47.9451 135.983 44.8969 134.318 42.3175 131.037C41.962 130.584 42.0412 129.927 42.4919 129.572C42.9471 129.214 43.6015 129.295 43.9571 129.746C46.1651 132.556 48.6244 133.836 51.4393 133.895C58.3215 133.85 65.7222 125.514 69.52 120.547C69.8687 120.09 70.5255 120.004 70.9829 120.353C71.4404 120.701 71.5287 121.358 71.1777 121.815C66.2567 128.251 58.8401 135.933 51.4552 135.983C51.428 135.983 51.4054 135.983 51.3827 135.983Z" fill="#12173F"/>
<path d="M266.808 138.426C266.122 138.426 265.422 138.363 264.711 138.236C260.299 137.45 253.417 133.875 245.686 121.313C245.382 120.821 245.536 120.178 246.028 119.877C246.519 119.574 247.16 119.728 247.464 120.219C253.18 129.506 259.434 135.177 265.076 136.182C267.63 136.64 269.983 136.089 271.881 134.595C272.336 134.237 272.99 134.318 273.346 134.769C273.701 135.222 273.622 135.879 273.171 136.234C271.326 137.684 269.156 138.426 266.808 138.426Z" fill="#12173F"/>
<path d="M9.67771 192.093C9.48296 192.093 9.2882 192.039 9.11156 191.925L1.31226 186.878C0.82763 186.563 0.68949 185.917 1.00201 185.435C1.31679 184.95 1.95993 184.812 2.44456 185.125L10.2439 190.173C10.7285 190.487 10.8666 191.133 10.5541 191.615C10.3571 191.925 10.0219 192.093 9.67771 192.093Z" fill="white"/>
<path d="M299.316 183.759C298.99 183.759 298.671 183.608 298.467 183.322C298.132 182.853 298.241 182.201 298.709 181.866L304.57 177.681C305.039 177.346 305.689 177.455 306.026 177.923C306.362 178.392 306.253 179.044 305.784 179.379L299.923 183.564C299.74 183.696 299.527 183.759 299.316 183.759Z" fill="white"/>
<path d="M259.192 188.739C259.785 184.572 260.968 180.634 261.251 176.517C260.121 175.181 259.061 173.79 258.135 172.296C255.94 170.106 253.861 167.816 251.948 165.377C250.263 166.132 248.65 167.044 247.151 168.179C241.764 172.255 238.07 177.928 232.012 181.209C219.256 188.119 203.261 183.073 191.517 192.107C187.862 194.917 120.379 182.686 120.016 180.652C111.318 163.486 91.2874 150.567 72.4345 145.546C64.9092 162.535 51.7292 180.661 51.7292 180.661C51.7292 180.661 95.452 180.111 115.217 212.565C114.638 213.747 115.655 215.695 117.437 215.405C118.223 215.278 119.011 215.176 119.797 215.063C137.811 216.154 154.277 222.108 168.952 232.709C169.926 233.413 171.201 232.802 171.808 231.959C178.264 223.009 188.437 219.166 199.194 221.474C200.648 221.787 201.66 220.847 201.834 219.461C201.972 218.383 202.108 217.305 202.246 216.227C202.294 216.231 202.341 216.236 202.389 216.24C204.665 213.052 207.011 209.913 209.595 206.965C211.248 205.085 259.038 189.831 259.192 188.739Z" fill="#12173F"/>
<path d="M304.339 190.456C304.022 190.456 303.707 190.313 303.504 190.039C303.157 189.579 303.25 188.925 303.712 188.578L307.061 186.067C307.519 185.72 308.176 185.813 308.522 186.275C308.868 186.735 308.776 187.389 308.314 187.736L304.964 190.247C304.776 190.388 304.559 190.456 304.339 190.456Z" fill="white"/>
<path d="M53.9259 57.684C53.3484 57.684 52.8819 57.2175 52.8819 56.64C52.8819 56.0626 53.3484 55.5961 53.9259 55.5961C56.0297 55.5961 58.4075 49.6651 58.985 36.4126C59.0099 35.8374 59.4855 35.3912 60.0743 35.4162C60.6495 35.4411 61.0956 35.928 61.0707 36.5054C60.6495 46.1685 59.0688 57.684 53.9259 57.684Z" fill="#12173F"/>
<path d="M120.229 222.873C104.316 179.975 51.7292 180.666 51.7292 180.666L44.3987 200.918L96.8787 231.585L120.229 222.873Z" fill="#F7D372"/>
<path d="M120.229 223.915C119.806 223.915 119.407 223.657 119.251 223.236C118.084 220.104 116.705 217.153 115.156 214.463C96.3306 181.499 52.1821 181.685 51.7405 181.705C51.3193 181.737 50.9819 181.492 50.8007 181.141C50.6173 180.79 50.6512 180.367 50.8822 180.048C51.0906 179.76 71.8366 151.086 75.8359 132.502C76.042 131.637 76.1892 130.815 76.2979 130.011C77.4302 121.739 74.4953 114.471 69.1553 112.334C62.8393 109.804 54.7751 114.51 47.0301 125.24C46.6927 125.708 46.0382 125.81 45.574 125.475C45.1052 125.138 45.001 124.485 45.3385 124.019C53.6881 112.449 62.6537 107.483 69.9298 110.397C76.2571 112.929 79.6473 120.926 78.3655 130.294C78.2455 131.164 78.0892 132.056 77.8695 132.966C74.2869 149.611 58.2127 173.274 53.713 179.669C62.7374 180.063 99.8815 183.519 116.961 213.426C118.567 216.211 119.996 219.268 121.203 222.507C121.404 223.046 121.13 223.648 120.589 223.85C120.474 223.893 120.351 223.915 120.229 223.915Z" fill="#12173F"/>
<path d="M260.968 175.691C260.968 175.691 218.816 180.494 203.875 214.642L234.721 226.212L266.652 193.649L260.968 175.691Z" fill="#F7D372"/>
<path d="M199.361 226.929C199.286 226.929 199.209 226.92 199.132 226.905C198.571 226.78 198.218 226.223 198.342 225.661C198.374 225.519 199.169 222.047 202.935 214.189C217.111 184.606 250.63 176.546 258.945 174.975C253.657 168.872 233.892 144.874 234.85 128.143C235.312 120.051 239.019 114.172 245.02 112.012C252.55 109.299 262.021 112.777 269.738 121.089C270.13 121.512 270.105 122.171 269.684 122.563C269.261 122.952 268.599 122.93 268.21 122.508C261.072 114.82 252.453 111.55 245.727 113.975C240.475 115.866 237.352 120.939 236.933 128.261C235.905 146.282 261.484 174.703 261.742 174.988C262.003 175.276 262.082 175.684 261.948 176.048C261.815 176.413 261.488 176.673 261.103 176.723C260.698 176.775 220.488 182.394 204.817 215.09C201.18 222.679 200.389 226.08 200.38 226.114C200.269 226.601 199.839 226.929 199.361 226.929Z" fill="#12173F"/>
<path d="M25.2876 280.306C21.893 280.306 19.1324 277.546 19.1324 274.151C19.1324 270.759 21.893 267.996 25.2876 267.996C28.68 267.996 31.4428 270.756 31.4428 274.151C31.4428 277.543 28.6823 280.306 25.2876 280.306ZM25.2876 270.082C23.0434 270.082 21.2181 271.907 21.2181 274.149C21.2181 276.393 23.0434 278.218 25.2876 278.218C27.5296 278.218 29.3549 276.393 29.3549 274.149C29.3549 271.907 27.5319 270.082 25.2876 270.082Z" fill="#7FCACF"/>
<path d="M263.341 7.93066C263.074 7.93066 262.806 7.82875 262.603 7.62493C262.195 7.2173 262.195 6.55604 262.603 6.14841L268.445 0.305722C268.853 -0.101907 269.514 -0.101907 269.922 0.305722C270.329 0.713351 270.329 1.37461 269.922 1.78224L264.079 7.62493C263.875 7.82875 263.608 7.93066 263.341 7.93066Z" fill="#7FCACF"/>
<path d="M279.406 278.114C279.311 278.114 279.216 278.101 279.121 278.073C278.566 277.915 278.244 277.337 278.403 276.783L281.324 266.56C281.485 266.005 282.065 265.691 282.615 265.842C283.17 266.001 283.491 266.578 283.333 267.133L280.411 277.355C280.28 277.815 279.861 278.114 279.406 278.114Z" fill="#7FCACF"/>
<path d="M161.257 222.794L108.331 192.238V131.569L161.257 162.125V222.794Z" fill="#7FCACF"/>
<path d="M214.194 192.238L161.268 222.794V162.125L214.194 131.569V192.238Z" fill="white"/>
<path d="M161.216 162.166L108.29 131.61L160.831 101.275L214.194 131.569L161.216 162.166Z" fill="white"/>
<path d="M160.847 130.586L154.821 112.338L147.964 116.002L141.938 112.521V122.526L180.796 144.962V134.957L174.77 131.478L170.406 117.048L160.847 130.586Z" fill="#F7D372"/>
<path d="M152.606 126.032C152.228 126.032 151.863 125.826 151.678 125.468L147.035 116.48C146.77 115.968 146.972 115.339 147.484 115.074C147.993 114.811 148.625 115.01 148.89 115.522L153.532 124.51C153.797 125.022 153.596 125.652 153.084 125.917C152.932 125.994 152.767 126.032 152.606 126.032Z" fill="white"/>
<path d="M167.75 134.774C167.308 134.774 166.898 134.49 166.755 134.049C166.579 133.499 166.882 132.912 167.43 132.735L174.453 130.482C175.003 130.308 175.59 130.609 175.766 131.157C175.943 131.707 175.639 132.294 175.091 132.47L168.069 134.724C167.962 134.758 167.854 134.774 167.75 134.774Z" fill="white"/>
<path d="M157.951 127.373L138.781 134.554L143.031 138.78L163.358 130.94L157.951 127.373Z" fill="#F7D372"/>
<path d="M158.311 131.961L155.962 153.651L162.337 153.567L162.367 129.431L158.311 131.961Z" fill="#F7D372"/>
<path d="M201.377 170.04C201.193 170.04 201.01 169.993 200.84 169.891C200.346 169.594 200.186 168.953 200.482 168.459L204.257 162.168C204.554 161.675 205.195 161.514 205.688 161.811C206.182 162.107 206.343 162.748 206.046 163.242L202.271 169.533C202.076 169.861 201.732 170.04 201.377 170.04Z" fill="#DD5349"/>
<path d="M127.145 191.01C126.819 191.01 126.5 190.859 126.296 190.573L122.102 184.701C121.767 184.232 121.875 183.58 122.344 183.245C122.813 182.91 123.465 183.019 123.8 183.487L127.994 189.36C128.329 189.828 128.221 190.481 127.752 190.816C127.569 190.947 127.356 191.01 127.145 191.01Z" fill="#DD5349"/>
<path d="M192.436 176.51C192.28 176.51 192.121 176.474 191.969 176.399C191.453 176.141 191.245 175.514 191.503 175L194.71 168.586C194.968 168.072 195.593 167.862 196.109 168.12C196.625 168.378 196.834 169.005 196.576 169.519L193.369 175.933C193.186 176.3 192.819 176.51 192.436 176.51Z" fill="#DD5349"/>
<path d="M161.216 163.208C160.856 163.208 160.505 163.022 160.31 162.687C160.023 162.189 160.192 161.55 160.693 161.263L213.671 130.665C214.167 130.378 214.808 130.545 215.096 131.048C215.383 131.546 215.213 132.185 214.713 132.473L161.735 163.07C161.572 163.165 161.393 163.208 161.216 163.208Z" fill="#12173F"/>
<path d="M161.214 177.717C161.033 177.717 160.854 177.67 160.693 177.577L107.769 147.02C107.271 146.733 107.099 146.094 107.386 145.596C107.674 145.098 108.313 144.923 108.811 145.213L161.214 175.468L213.671 145.173C214.167 144.885 214.808 145.055 215.096 145.555C215.383 146.053 215.213 146.692 214.713 146.98L161.735 177.577C161.576 177.67 161.395 177.717 161.214 177.717Z" fill="#12173F"/>
<path d="M161.268 223.838C160.693 223.838 160.227 223.372 160.224 222.797L160.17 162.166C160.17 161.589 160.636 161.122 161.212 161.122C161.787 161.122 162.253 161.589 162.256 162.164L162.31 222.794C162.314 223.369 161.846 223.838 161.268 223.838Z" fill="#12173F"/>
</svg>
