<svg width="403" height="676" viewBox="0 0 403 676" fill="none" xmlns="http://www.w3.org/2000/svg">
<path d="M242.9 506.966V674.543C289.957 699.698 365.23 687.402 394.013 674.543V506.966H242.9Z" fill="#F7989C"/>
<path d="M242.9 615.753V653.259C247.141 649.733 251.503 646.222 255.942 642.59C268.223 632.543 255.744 622.631 242.9 615.753Z" fill="#12173F"/>
<path d="M312.988 566.276C312.988 566.276 298.156 579.757 330.516 588.935C337.763 590.989 342.144 581.349 338.439 576.58C367.755 561.95 396.293 547.307 402.752 501.109C406.181 476.594 373.161 340.931 358.138 330.215C341.107 318.071 324.046 338.702 323.269 364.04C322.663 383.762 328.784 402.144 331.06 429.751C318.255 497.326 312.988 566.276 312.988 566.276Z" fill="#F7989C"/>
<path d="M348.879 484.393C341.03 483.251 312.689 478.245 287.413 473.856C283.04 466.527 276.037 460.728 267.749 458.375C252.517 454.044 233.016 460.771 228.732 477.25C228.072 479.79 228.033 482.129 228.452 484.245C222.584 490.059 217.849 497.408 214.855 506.24C188.973 505.871 87.0837 479.662 53.9506 496.596C32.8767 507.366 37.083 533.994 53.9506 542.666C53.9506 542.666 41.8562 579.741 84.9127 592.007C121.126 602.322 272.204 627.536 272.204 627.536L354.604 558.427L348.879 484.393Z" fill="#F7989C"/>
<path d="M209.107 562.622C208.986 562.622 208.866 562.61 208.742 562.579C207.522 562.284 86.3924 533.093 54.4515 544.115C53.6514 544.387 52.7698 543.963 52.494 543.163C52.2144 542.359 52.6416 541.486 53.4456 541.206C86.2176 529.881 204.45 558.369 209.468 559.588C210.291 559.786 210.8 560.621 210.598 561.445C210.427 562.152 209.798 562.622 209.107 562.622Z" fill="#12173F"/>
<path d="M134.766 489.997C134.307 489.997 133.853 489.791 133.55 489.403C133.026 488.731 133.15 487.764 133.818 487.244L148.915 475.503C149.587 474.978 150.554 475.107 151.074 475.771C151.598 476.443 151.474 477.41 150.806 477.93L135.71 489.671C135.43 489.892 135.096 489.997 134.766 489.997Z" fill="white"/>
<path d="M253.068 468.283C145.831 432.71 186.841 396.237 199.09 373.606C213.686 346.636 195.754 301.529 168.781 335.831C141.807 370.134 108.243 401.69 117.273 441.426C124.151 471.681 209.103 518.264 209.103 518.264L253.068 468.283Z" fill="#F7989C"/>
<path d="M214.676 571.861C213.965 571.861 213.325 571.364 213.173 570.642C213.033 569.974 199.576 503.552 237.187 465.129C237.785 464.523 238.756 464.511 239.362 465.106C239.968 465.7 239.98 466.675 239.385 467.281C202.912 504.542 216.047 569.356 216.183 570.009C216.358 570.84 215.826 571.655 214.995 571.83C214.886 571.853 214.781 571.861 214.676 571.861Z" fill="#12173F"/>
<path d="M266.611 584.2C266.114 584.2 265.625 583.959 265.33 583.517C264.86 582.81 265.05 581.854 265.757 581.384C278.368 572.976 295.748 574.623 304.067 581.431C304.723 581.967 304.821 582.938 304.281 583.594C303.745 584.251 302.774 584.352 302.117 583.808C295.791 578.635 279.812 575.71 267.462 583.94C267.202 584.119 266.902 584.2 266.611 584.2Z" fill="#12173F"/>
<path d="M214.672 507.766C214.672 507.766 198.702 505.87 186.576 504.259C185.734 504.146 185.143 503.373 185.256 502.53C185.369 501.688 186.145 501.101 186.984 501.21C199.09 502.818 215.034 504.709 215.037 504.709L214.672 507.766Z" fill="#12173F"/>
<path d="M357.99 400.882H335.891C335.041 400.882 334.353 400.195 334.353 399.344C334.353 398.494 335.041 397.806 335.891 397.806H357.99C358.841 397.806 359.528 398.494 359.528 399.344C359.528 400.195 358.841 400.882 357.99 400.882Z" fill="white"/>
<path d="M322.403 541.637C321.688 541.637 321.051 541.14 320.896 540.41C320.601 538.98 313.719 505.117 320.935 482.125C321.187 481.317 322.046 480.855 322.865 481.119C323.673 481.371 324.123 482.237 323.871 483.049C316.892 505.284 323.836 539.443 323.91 539.784C324.081 540.616 323.549 541.431 322.718 541.602C322.613 541.625 322.508 541.637 322.403 541.637Z" fill="#12173F"/>
<path d="M157.681 351.06C156.954 351.06 156.306 350.544 156.17 349.802C156.014 348.967 156.566 348.163 157.405 348.011C171.138 345.467 179.966 328.639 180.055 328.468C180.444 327.714 181.368 327.419 182.129 327.807C182.883 328.196 183.178 329.124 182.79 329.881C182.405 330.627 173.166 348.225 157.964 351.037C157.867 351.052 157.774 351.06 157.681 351.06Z" fill="white"/>
<path d="M348.549 379.975L331.149 370.13C333.227 363.434 334.33 356.311 334.264 348.92C334.202 341.533 332.975 334.429 330.776 327.769L348.005 317.62L333.064 292.255L315.827 302.407C306.188 291.979 293.386 284.533 278.966 281.551L278.795 261.712V261.549L249.355 261.805V261.968L249.526 281.807C235.16 285.038 222.491 292.709 213.033 303.3L195.766 293.529L195.626 293.451L181.127 319.073L195.253 327.066L198.531 328.922C196.453 335.618 195.346 342.741 195.412 350.128C195.478 357.515 196.702 364.619 198.896 371.279L187.198 378.169L181.807 381.346L181.667 381.428L196.608 406.793L202.792 403.15L213.841 396.641C223.481 407.069 236.286 414.515 250.707 417.497L250.881 437.499L280.321 437.243L280.146 417.241C294.513 414.01 307.186 406.343 316.643 395.748L334.047 405.597L348.549 379.975ZM241.712 349.724C241.599 336.946 251.864 326.502 264.642 326.394C277.42 326.281 287.864 336.546 287.972 349.324C288.085 362.102 277.82 372.546 265.042 372.654C252.264 372.763 241.82 362.502 241.712 349.724Z" fill="#283071"/>
<path d="M331.149 370.126C333.227 363.43 334.33 356.307 334.268 348.916C334.202 341.529 332.978 334.426 330.78 327.765L348.009 317.616L333.068 292.251L315.831 302.403C312.266 298.547 308.262 295.105 303.912 292.138L269.24 326.809C279.832 328.848 287.875 338.115 287.972 349.32C288.085 362.098 277.82 372.542 265.042 372.651C253.697 372.748 244.209 364.661 242.147 353.907L193.89 402.164L196.616 406.79L202.799 403.147L213.849 396.637C223.489 407.065 236.294 414.511 250.714 417.494L250.889 437.495L280.329 437.239L280.154 417.237C294.52 414.006 307.194 406.339 316.651 395.744L334.054 405.593L348.553 379.972L331.149 370.126Z" fill="#12173F"/>
<path d="M367.044 99.3551L356.911 91.0553C359 86.9656 360.507 82.4914 361.292 77.7143C362.076 72.941 362.076 68.2182 361.404 63.6741L373.658 59.0484L366.85 41.004L354.588 45.6297C349.531 37.8193 342.102 31.5857 333.126 28.0475L335.231 15.223L335.247 15.1181L316.216 11.9916L316.2 12.0965L314.095 24.921C304.463 25.4026 295.425 28.9369 288.139 34.7161L278.084 26.4784L278.002 26.4124L265.78 41.3303L274.002 48.0688L275.909 49.634C273.82 53.7237 272.309 58.1979 271.524 62.975C270.74 67.7522 270.736 72.4749 271.408 77.0152L263.088 80.1533L259.255 81.602L259.154 81.6408L265.962 99.6852L270.359 98.0268L278.22 95.0596C283.277 102.87 290.71 109.104 299.682 112.642L297.558 125.571L316.589 128.698L318.713 115.768C328.349 115.287 337.383 111.756 344.673 105.973L354.806 114.277L367.044 99.3551ZM292.241 66.3734C294.435 53.0168 307.03 43.9752 320.387 46.1657C333.744 48.3601 342.785 60.9554 340.595 74.312C338.4 87.6686 325.805 96.7102 312.448 94.5197C299.092 92.3292 290.046 79.73 292.241 66.3734Z" fill="#F05050"/>
<path d="M129.554 45.3618C67.6919 45.3618 17.5552 95.4985 17.5552 157.361C17.5552 219.195 67.6919 269.336 129.554 269.336C191.416 269.336 241.553 219.199 241.553 157.361C241.553 95.4985 191.416 45.3618 129.554 45.3618ZM129.554 193.251C109.731 193.251 93.6671 177.16 93.6671 157.364C93.6671 137.541 109.731 121.45 129.554 121.45C149.377 121.45 165.441 137.541 165.441 157.364C165.441 177.16 149.377 193.251 129.554 193.251Z" fill="#7FCACF"/>
<path d="M129.55 211.773C99.5434 211.773 75.1294 187.359 75.1294 157.353C75.1294 127.346 99.5434 102.932 129.55 102.932C159.557 102.932 183.971 127.346 183.971 157.353C183.971 187.359 159.561 211.773 129.55 211.773ZM129.55 106.008C101.237 106.008 78.2054 129.039 78.2054 157.353C78.2054 185.666 101.237 208.697 129.55 208.697C157.863 208.697 180.895 185.666 180.895 157.353C180.895 129.039 157.863 106.008 129.55 106.008Z" fill="white"/>
<path d="M152.775 27.799H106.328V62.9168H152.775V27.799Z" fill="#7FCACF"/>
<path d="M204.73 49.3246L179.898 74.1564L212.741 106.999L237.573 82.1672L204.73 49.3246Z" fill="#7FCACF"/>
<path d="M259.1 134.127H223.982V180.574H259.1V134.127Z" fill="#7FCACF"/>
<path d="M212.74 207.706L179.897 240.549L204.729 265.381L237.571 232.538L212.74 207.706Z" fill="#7FCACF"/>
<path d="M152.775 251.785H106.328V286.903H152.775V251.785Z" fill="#7FCACF"/>
<path d="M46.3528 207.705L21.521 232.536L54.3637 265.379L79.1955 240.547L46.3528 207.705Z" fill="#7FCACF"/>
<path d="M35.1178 134.127H0V180.574H35.1178V134.127Z" fill="#7FCACF"/>
<path d="M54.3622 49.3258L21.5195 82.1685L46.3514 107L79.1941 74.1576L54.3622 49.3258Z" fill="#7FCACF"/>
<path d="M152.775 27.799H106.328V62.9168H152.775V27.799Z" fill="#7FCACF"/>
<path d="M326.077 211.773C325.665 211.773 325.25 211.606 324.951 211.28C324.372 210.655 324.411 209.684 325.032 209.105L334.847 200.021C335.468 199.438 336.443 199.477 337.022 200.102C337.6 200.728 337.561 201.699 336.94 202.277L327.122 211.362C326.826 211.637 326.45 211.773 326.077 211.773Z" fill="#F7D372"/>
<path d="M223.528 17.3358C223.077 17.3358 222.627 17.1378 222.324 16.7572L210.967 2.49952C210.439 1.83538 210.548 0.8683 211.212 0.336212C211.876 -0.195876 212.843 -0.0832457 213.375 0.580894L224.732 14.8385C225.26 15.5027 225.151 16.4698 224.487 17.0018C224.199 17.2271 223.862 17.3358 223.528 17.3358Z" fill="#F7D372"/>
<path d="M291.716 210.515L302.409 187.336L317.898 214.422L304.89 234.739L291.716 210.515Z" fill="#F7D372"/>
<path d="M93.8922 363.391L100.891 355.305L108.13 366.425L100.891 377.797L93.8922 363.391Z" fill="#F7D372"/>
</svg>
