<svg width="406" height="458" viewBox="0 0 406 458" fill="none" xmlns="http://www.w3.org/2000/svg">
<path d="M216.768 0.356567H68.109V26.7255H216.768V0.356567Z" fill="#F7D372"/>
<path d="M142.438 420.993C141.75 420.993 141.193 420.435 141.193 419.75V191.839C141.193 191.151 141.75 190.593 142.438 190.593C143.127 190.593 143.684 191.151 143.684 191.839V419.75C143.684 420.438 143.127 420.993 142.438 420.993Z" fill="#F05050"/>
<path d="M142.438 224.539C171.626 224.539 195.287 200.878 195.287 171.69C195.287 142.503 171.626 118.842 142.438 118.842C113.251 118.842 89.5903 142.503 89.5903 171.69C89.5903 200.878 113.251 224.539 142.438 224.539Z" fill="#F7D372"/>
<path d="M243.671 457.511H41.2086C40.6045 457.511 40.0876 457.079 39.983 456.483C39.8785 455.888 40.2154 455.304 40.7846 455.098L142.026 418.501C142.299 418.402 142.601 418.402 142.871 418.501L244.092 455.098C244.661 455.304 244.998 455.888 244.894 456.483C244.792 457.079 244.275 457.511 243.671 457.511ZM48.309 455.023H236.562L142.447 420.993L48.309 455.023Z" fill="#F05050"/>
<path d="M284.877 14.1943H0V204.114H284.877V14.1943Z" fill="#F05050"/>
<path d="M52.5576 199.694C51.8693 199.694 51.3118 199.137 51.3118 198.449V19.814C51.3118 19.1257 51.8693 18.5681 52.5576 18.5681C53.2459 18.5681 53.8006 19.1257 53.8006 19.814V198.452C53.8035 199.137 53.2459 199.694 52.5576 199.694Z" fill="white"/>
<path d="M112.48 199.694C111.792 199.694 111.234 199.137 111.234 198.449V19.814C111.234 19.1257 111.792 18.5681 112.48 18.5681C113.168 18.5681 113.726 19.1257 113.726 19.814V198.452C113.723 199.137 113.168 199.694 112.48 199.694Z" fill="white"/>
<path d="M172.4 199.694C171.711 199.694 171.154 199.137 171.154 198.449V19.814C171.154 19.1257 171.711 18.5681 172.4 18.5681C173.088 18.5681 173.645 19.1257 173.645 19.814V198.452C173.645 199.137 173.088 199.694 172.4 199.694Z" fill="white"/>
<path d="M232.319 199.694C231.631 199.694 231.073 199.137 231.073 198.449V19.814C231.073 19.1257 231.631 18.5681 232.319 18.5681C233.007 18.5681 233.562 19.1257 233.562 19.814V198.452C233.562 199.137 233.007 199.694 232.319 199.694Z" fill="white"/>
<path d="M419.352 384.07H341.355C312.895 403.548 293.388 380.353 293.388 380.353H243.822L231.636 279.132L312.892 254.993H419.349C451.7 318.543 424.73 383.353 419.352 384.07Z" fill="#7FCACF"/>
<path d="M331.06 340.422C325.168 351.722 312.669 355.753 300.57 363.332C293.679 367.651 289.387 374.202 285.01 380.35H267.449C270.426 369.396 268.948 359.278 259.109 351.469C264.316 348.867 267.879 343.997 271.913 339.249C274.219 339.873 276.609 340.431 279.089 340.913C280.059 341.102 281.043 341.282 282.04 341.447C292.067 343.117 303.471 343.594 316.429 342.394C321.102 341.961 325.975 341.311 331.06 340.422Z" fill="#12173F"/>
<path d="M216.112 396.659C215.423 396.659 214.866 396.102 214.866 395.413V166.222C214.866 165.534 215.423 164.976 216.112 164.976C216.8 164.976 217.357 165.534 217.357 166.222V395.413C217.357 396.105 216.8 396.659 216.112 396.659Z" fill="#F05050"/>
<path d="M225.1 306.659H207.123V416.761H225.1V306.659Z" fill="#F05050"/>
<path d="M356.433 270.231C356.433 270.231 354.142 330.037 316.429 342.394C303.471 343.593 292.067 343.117 282.04 341.447C281.043 341.282 280.059 341.102 279.089 340.913C228.056 326.811 215.92 287.368 215.92 287.368C201.222 298.241 179.555 311.01 163.374 314.329C129.753 321.223 109.233 305.245 145.511 268.006C222.129 189.359 283.895 191.612 356.433 270.231Z" fill="#7FCACF"/>
<path d="M282.039 341.447C278.494 340.855 275.122 340.117 271.913 339.249C267.879 343.997 264.316 348.867 259.109 351.469C268.948 359.278 270.426 369.396 267.449 380.35H267.885C265.809 382.72 263.451 384.913 260.776 386.876C251.741 393.509 239.608 394.743 221.992 394.781C172.899 394.894 156.302 379.888 158.123 351.948C152.353 338.587 150.532 323.097 155.997 302.138L211.84 268.007L279.525 306.201C279.525 306.201 283.41 322.591 282.039 341.447Z" fill="#7FCACF"/>
<path d="M302.322 344.305C285.995 344.305 271.297 341.491 258.4 335.872C225.358 321.465 213.992 292.523 211.494 284.847C205.654 289.81 183.235 307.929 158.068 316.316C157.418 316.533 156.712 316.182 156.494 315.529C156.279 314.875 156.631 314.172 157.281 313.955C185.962 304.394 211.05 281.946 211.299 281.72C211.622 281.426 212.072 281.322 212.499 281.452C212.917 281.58 213.236 281.92 213.341 282.344C213.428 282.692 222.448 317.477 259.394 333.586C279.06 342.153 303.1 344.038 330.845 339.191L331.4 339.104C332.062 338.988 332.718 339.449 332.829 340.129C332.942 340.808 332.48 341.447 331.804 341.558L331.26 341.642C321.131 343.419 311.469 344.305 302.322 344.305Z" fill="#12173F"/>
<path d="M228.622 357.03C211.291 357.03 188.508 354.855 159.163 351.321C158.48 351.24 157.992 350.618 158.077 349.936C158.158 349.25 158.8 348.774 159.459 348.847C227.577 357.057 259.672 357.96 269.776 341.639C270.139 341.055 270.911 340.875 271.486 341.235C272.073 341.598 272.253 342.365 271.89 342.949C265.661 353.017 252.163 357.03 228.622 357.03Z" fill="#12173F"/>
<path d="M211.317 314.66C202.155 314.66 189.133 314.158 172.179 312.314C171.496 312.238 171 311.625 171.075 310.943C171.151 310.26 171.807 309.773 172.446 309.839C209.203 313.832 227.222 311.495 227.405 311.469C228.105 311.367 228.712 311.855 228.805 312.534C228.898 313.214 228.422 313.841 227.739 313.934C227.644 313.949 222.207 314.66 211.317 314.66Z" fill="#12173F"/>
<path d="M138.712 305.393C138.378 305.393 138.044 305.26 137.798 304.993C137.33 304.487 137.362 303.7 137.867 303.233C137.992 303.119 150.207 291.721 150.001 281.208C149.931 277.602 148.36 274.465 145.334 271.881C144.811 271.433 144.747 270.649 145.191 270.126C145.644 269.604 146.431 269.546 146.945 269.987C150.541 273.051 152.405 276.812 152.486 281.165C152.71 292.798 140.089 304.566 139.552 305.062C139.316 305.283 139.012 305.393 138.712 305.393Z" fill="#12173F"/>
<path d="M219.12 246.397C218.621 246.397 218.144 246.092 217.956 245.593L213.149 232.92C212.906 232.278 213.231 231.558 213.873 231.317C214.517 231.067 215.235 231.398 215.479 232.04L220.285 244.713C220.529 245.355 220.203 246.075 219.562 246.316C219.416 246.371 219.265 246.397 219.12 246.397Z" fill="white"/>
<path d="M227.423 387.549C226.735 387.549 226.177 386.992 226.177 386.303C226.177 381.169 227.957 376.88 231.474 373.555C240.602 364.915 258.206 365.783 258.955 365.833C259.644 365.87 260.169 366.457 260.129 367.142C260.091 367.828 259.51 368.38 258.819 368.316C258.642 368.304 241.525 367.465 233.179 375.367C230.185 378.201 228.666 381.881 228.666 386.303C228.669 386.995 228.111 387.549 227.423 387.549Z" fill="#12173F"/>
<path d="M226.546 345.162C225.954 345.162 225.425 344.735 225.32 344.128C222.994 330.633 238.935 323.822 239.617 323.538C240.247 323.277 240.979 323.573 241.243 324.209C241.508 324.842 241.209 325.571 240.575 325.835C240.427 325.896 225.785 332.169 227.777 343.704C227.893 344.38 227.44 345.025 226.761 345.141C226.688 345.156 226.616 345.162 226.546 345.162Z" fill="#12173F"/>
<path d="M77.9537 239.738C77.6952 239.738 77.4397 239.66 77.216 239.497C76.6614 239.091 76.5423 238.313 76.9489 237.758L87.2554 223.705C87.6648 223.15 88.4489 223.034 88.9949 223.438C89.5496 223.845 89.6687 224.623 89.2621 225.177L78.9556 239.23C78.7145 239.564 78.337 239.738 77.9537 239.738Z" fill="#F7D372"/>
<path d="M89.1953 239.738C88.9339 239.738 88.6726 239.657 88.4489 239.489C87.9001 239.076 87.7868 238.295 88.1992 237.746L96.6297 226.504C97.0449 225.953 97.8261 225.845 98.3721 226.255C98.921 226.667 99.0342 227.448 98.6218 227.997L90.1914 239.239C89.9474 239.567 89.5728 239.738 89.1953 239.738Z" fill="#F7D372"/>
<path d="M44.2259 330.612C39.408 330.612 35.4875 326.692 35.4875 321.871C35.4875 317.053 39.408 313.133 44.2259 313.133C49.0466 313.133 52.9671 317.053 52.9671 321.871C52.9671 326.692 49.0466 330.612 44.2259 330.612ZM44.2259 315.624C40.7788 315.624 37.9763 318.427 37.9763 321.874C37.9763 325.321 40.7788 328.126 44.2259 328.126C47.673 328.126 50.4783 325.321 50.4783 321.874C50.4783 318.427 47.673 315.624 44.2259 315.624Z" fill="#F7D372"/>
<path d="M338.866 144.651C338.547 144.651 338.23 144.529 337.986 144.285L329.085 135.387C328.6 134.902 328.6 134.112 329.085 133.627C329.57 133.142 330.36 133.142 330.845 133.627L339.746 142.525C340.231 143.01 340.231 143.8 339.746 144.285C339.502 144.529 339.183 144.651 338.866 144.651Z" fill="#F7D372"/>
</svg>
