<svg width="574" height="366" viewBox="0 0 574 366" fill="none" xmlns="http://www.w3.org/2000/svg">
<path d="M70.6251 247.496H33.7656V258.259H70.6251V247.496Z" fill="#12173F"/>
<path d="M373.24 248.636H2.07509C1.44586 248.636 0.935303 248.126 0.935303 247.496V40.5385C0.935303 39.9092 1.44586 39.3987 2.07509 39.3987H373.24C373.869 39.3987 374.379 39.9092 374.379 40.5385V247.499C374.376 248.126 373.869 248.636 373.24 248.636ZM3.21488 246.359H372.102V41.6755H3.21488V246.359Z" fill="#12173F"/>
<path d="M266.031 178.866H34.1023V209.381H266.031V178.866Z" fill="#7FCACF"/>
<path d="M183.334 190.013C185.501 186.124 187.165 182.514 188.412 178.866H34.1023V209.381H175.336C177.643 202.807 179.882 196.214 183.334 190.013Z" fill="#12173F"/>
<path d="M352.486 178.866H286.08V209.381H352.486V178.866Z" fill="#F05050"/>
<path d="M333.78 154.851H304.786V178.866H333.78V154.851Z" fill="#F05050"/>
<path d="M342.777 247.496H305.918V258.259H342.777V247.496Z" fill="#12173F"/>
<path d="M352.839 54.6184H317.026V75.2422H352.839V54.6184Z" fill="#F7D372"/>
<path d="M55.06 54.6184H34.1023V75.2422H55.06V54.6184Z" fill="#F05050"/>
<path d="M88.5912 54.6184H67.6335V75.2422H88.5912V54.6184Z" fill="#F05050"/>
<path d="M334.001 210.562C333.372 210.562 332.861 210.052 332.861 209.422V180.003H305.926V209.425C305.926 210.054 305.415 210.565 304.786 210.565C304.157 210.565 303.646 210.054 303.646 209.425V178.866C303.646 178.237 304.157 177.726 304.786 177.726H333.998C334.628 177.726 335.138 178.237 335.138 178.866V209.425C335.138 210.054 334.63 210.562 334.001 210.562Z" fill="white"/>
<path d="M484.315 280.059H480.951C446.26 280.059 418.036 251.837 418.036 217.144V148.277C418.036 113.586 446.26 85.3623 480.951 85.3623H484.315C519.005 85.3623 547.229 113.584 547.229 148.277V217.144C547.229 251.837 519.005 280.059 484.315 280.059ZM480.951 87.6419C447.516 87.6419 420.316 114.842 420.316 148.277V217.144C420.316 250.579 447.516 277.779 480.951 277.779H484.315C517.749 277.779 544.95 250.579 544.95 217.144V148.277C544.95 114.842 517.749 87.6419 484.315 87.6419H480.951Z" fill="#12173F"/>
<path d="M482.085 148.909C481.456 148.909 480.945 148.398 480.945 147.769V87.5949C480.945 86.9656 481.456 86.4551 482.085 86.4551C482.714 86.4551 483.225 86.9656 483.225 87.5949V147.769C483.225 148.398 482.714 148.909 482.085 148.909Z" fill="#12173F"/>
<path d="M546.089 148.909H418.629C418 148.909 417.49 148.398 417.49 147.769C417.49 147.14 418 146.629 418.629 146.629H546.089C546.719 146.629 547.229 147.14 547.229 147.769C547.229 148.401 546.719 148.909 546.089 148.909Z" fill="#12173F"/>
<path d="M502.698 185.55C494.449 192.055 485.041 198.541 474.449 200.241C466.47 201.521 465.681 205.258 460.959 200.829C450.745 214.884 435.986 220.989 419.364 224.033C421.651 254.724 447.257 278.916 478.533 278.916H486.738C519.519 278.916 546.092 252.342 546.092 219.562V163.133C532.357 171.423 515.34 175.582 502.698 185.55Z" fill="#12173F"/>
<path d="M567.991 371.272C532.07 380.865 491.661 379.284 448.67 371.272V273.645H567.991V371.272Z" fill="#F7989C"/>
<path d="M460.266 231.467C454.374 159.962 446.39 104.452 467.033 101.626C476.634 100.312 485.485 108.983 492.02 143.318C499.532 182.796 504.017 248.509 503.641 243.892L460.266 231.467Z" fill="#F7989C"/>
<path d="M480.054 131.859C477.575 131.859 475.238 131.189 473.132 129.853C468.049 126.627 464.831 119.94 463.826 110.518C463.76 109.891 464.213 109.331 464.839 109.265C465.419 109.21 466.023 109.649 466.092 110.275C467.008 118.858 469.942 125.128 474.355 127.929C477.264 129.778 480.768 130.079 484.478 128.79C485.074 128.589 485.722 128.898 485.926 129.494C486.131 130.087 485.819 130.736 485.223 130.943C483.456 131.556 481.723 131.859 480.054 131.859Z" fill="#12173F"/>
<path d="M469.887 271.793L434.871 255.32C434.871 255.32 424.988 192.041 400.666 193.413C375.075 194.856 395.585 262.542 400.812 283.147C406.039 303.748 438.897 349.552 484.467 342.791C530.036 336.027 469.887 271.793 469.887 271.793Z" fill="#F7989C"/>
<path d="M394.984 228.884C394.537 228.884 394.114 228.619 393.932 228.181C393.692 227.601 393.971 226.936 394.548 226.693C394.611 226.668 400.774 224.041 402.924 217.721C404.568 212.878 403.503 207.104 399.753 200.569C399.438 200.023 399.628 199.327 400.172 199.015C400.716 198.703 401.411 198.888 401.726 199.435C405.824 206.577 406.95 212.985 405.065 218.486C402.568 225.785 395.707 228.68 395.414 228.799C395.276 228.857 395.13 228.884 394.984 228.884Z" fill="#12173F"/>
<path d="M407.817 289.812C407.51 289.812 407.204 289.688 406.978 289.442C406.553 288.979 406.583 288.258 407.047 287.833L413.317 282.082C413.78 281.66 414.498 281.687 414.926 282.151C415.351 282.615 415.32 283.335 414.857 283.76L408.587 289.511C408.369 289.713 408.093 289.812 407.817 289.812Z" fill="white"/>
<path d="M572.561 173.802C568.918 147.096 547.674 144.06 547.674 144.06C547.224 108.575 540.636 92.1073 526.835 97.1991C501.395 106.588 516.427 163.696 503.697 210.129C503.697 210.129 489.503 204.052 467.549 219.932C439.021 240.569 456.016 276.99 456.016 276.99L564.668 318.265C564.671 318.268 575.492 195.295 572.561 173.802Z" fill="#F7989C"/>
<path d="M548.281 216.824C547.651 216.824 547.141 216.314 547.141 215.685C547.141 204.888 546.539 144.678 546.534 144.071C546.528 143.442 547.031 142.929 547.663 142.92C548.261 142.907 548.805 143.417 548.813 144.049C548.819 144.656 549.421 204.88 549.421 215.687C549.421 216.314 548.91 216.824 548.281 216.824Z" fill="#12173F"/>
<path d="M540.123 130.996C534.921 130.996 530.179 128.724 527.124 124.767C524.4 121.234 521.754 114.724 524.63 103.748C524.787 103.138 525.402 102.777 526.02 102.934C526.628 103.094 526.992 103.715 526.832 104.325C524.193 114.407 526.517 120.249 528.929 123.376C531.551 126.77 535.63 128.719 540.123 128.719C540.752 128.719 541.263 129.229 541.263 129.859C541.26 130.488 540.752 130.996 540.123 130.996Z" fill="#12173F"/>
<path d="M507.433 234.227C506.854 234.227 506.36 233.786 506.302 233.198L505.234 221.985C505.176 221.359 505.634 220.804 506.258 220.743C506.879 220.68 507.439 221.141 507.5 221.767L508.568 232.98C508.626 233.606 508.167 234.161 507.544 234.222C507.508 234.227 507.472 234.227 507.433 234.227Z" fill="#12173F"/>
<path d="M549.617 232.091C549.112 232.091 548.651 231.755 548.515 231.247L546.379 223.238C546.217 222.631 546.581 222.007 547.185 221.844C547.803 221.673 548.419 222.046 548.579 222.65L550.715 230.659C550.878 231.266 550.513 231.89 549.909 232.053C549.812 232.08 549.713 232.091 549.617 232.091Z" fill="#12173F"/>
<path d="M190.904 371.002C153.518 380.986 111.461 379.339 66.7173 371.002V269.395H190.904V371.002Z" fill="#F7989C"/>
<path d="M66.72 269.395C66.72 165.128 75.9597 221.198 96.5641 211.677C98.2062 210.918 91.6959 121.885 93.5974 121.391C92.7915 109.121 94.8917 92.6262 109.372 91.1221C134.453 88.5197 133.305 156.109 136.037 188.263C136.037 188.263 186.246 194.547 190.915 269.395C195.557 344.243 66.72 269.395 66.72 269.395Z" fill="#F7989C"/>
<path d="M135.356 208.111C139.371 133.545 132.143 93.1833 153.827 93.1833C163.914 93.1833 171.815 103.375 173.708 139.702C175.883 181.471 171.233 249.864 171.497 245.054L135.356 208.111Z" fill="#F7989C"/>
<path d="M135.623 198.932C134.994 198.932 134.483 198.422 134.483 197.793V180.009C134.483 179.379 134.994 178.869 135.623 178.869C136.252 178.869 136.763 179.379 136.763 180.009V197.793C136.76 198.425 136.252 198.932 135.623 198.932Z" fill="#12173F"/>
<path d="M164.568 267.466L201.01 250.319C201.01 250.319 211.296 184.46 236.609 185.887C263.243 187.388 241.896 257.837 236.457 279.281C231.017 300.724 196.818 348.393 149.392 341.356C101.965 334.319 164.568 267.466 164.568 267.466Z" fill="#F7989C"/>
<path d="M107.098 125.559C104.973 125.559 102.707 124.813 100.417 123.334C99.8869 122.992 99.7379 122.286 100.08 121.761C100.425 121.231 101.132 121.085 101.653 121.424C105.13 123.676 108.321 123.889 110.887 122.043C116.026 118.342 117.82 107.452 115.057 96.708C114.903 96.098 115.27 95.4771 115.877 95.3226C116.49 95.1625 117.108 95.5351 117.265 96.1422C120.298 107.932 118.176 119.603 112.22 123.892C110.669 125.004 108.936 125.559 107.098 125.559Z" fill="#12173F"/>
<path d="M150.399 127.347C148.274 127.347 146.008 126.602 143.718 125.123C143.188 124.78 143.039 124.074 143.381 123.55C143.723 123.02 144.432 122.876 144.954 123.213C148.434 125.465 151.624 125.677 154.188 123.831C159.327 120.13 161.121 109.24 158.358 98.4991C158.204 97.8892 158.571 97.2682 159.178 97.1137C159.79 96.9591 160.409 97.3262 160.566 97.9333C163.599 109.723 161.477 121.391 155.521 125.68C153.967 126.792 152.237 127.347 150.399 127.347Z" fill="#12173F"/>
<path d="M242.523 222.763C242.379 222.763 242.23 222.736 242.09 222.678C241.786 222.553 234.663 219.545 232.069 211.97C230.115 206.262 231.285 199.603 235.544 192.182C235.858 191.636 236.548 191.451 237.097 191.763C237.641 192.074 237.831 192.77 237.517 193.316C233.606 200.133 232.497 206.152 234.213 211.208C236.457 217.804 242.893 220.547 242.956 220.572C243.533 220.812 243.812 221.477 243.572 222.059C243.392 222.498 242.97 222.763 242.523 222.763Z" fill="#12173F"/>
<path d="M133.217 231.774C133.156 231.774 133.095 231.768 133.037 231.76C132.416 231.664 131.991 231.078 132.091 230.458L133.89 219.062C133.987 218.439 134.574 218.016 135.193 218.116C135.814 218.212 136.239 218.797 136.139 219.418L134.34 230.814C134.252 231.374 133.766 231.774 133.217 231.774Z" fill="#12173F"/>
<path d="M229.168 286.174C228.892 286.174 228.616 286.075 228.398 285.876L221.874 279.89C221.411 279.465 221.38 278.745 221.805 278.281C222.233 277.818 222.956 277.79 223.414 278.212L229.938 284.198C230.402 284.623 230.432 285.344 230.007 285.807C229.781 286.05 229.475 286.174 229.168 286.174Z" fill="white"/>
<path d="M66.9712 261.999C65.6934 243.288 60.8058 211.128 55.1262 181.814C49.1651 151.039 42.6824 123.42 53.8236 118.789C68.0199 112.891 79.3736 128.509 84.377 147.943C89.3805 167.377 101.421 226.552 101.421 226.552L66.9712 261.999Z" fill="#F7989C"/>
<path d="M59.3238 150.228C57.9715 150.228 56.5143 149.952 54.9854 149.392C54.3948 149.177 54.0913 148.523 54.3065 147.932C54.5218 147.341 55.1786 147.041 55.7664 147.253C59.1941 148.509 61.9704 148.067 63.8029 145.992C67.5175 141.778 66.9104 131.989 62.3899 123.215C62.1001 122.655 62.3209 121.971 62.8784 121.681C63.4386 121.394 64.1258 121.612 64.4128 122.172C69.4218 131.889 69.8799 142.539 65.5112 147.496C63.916 149.306 61.791 150.228 59.3238 150.228Z" fill="#12173F"/>
<path d="M95.4299 229.974C95.3443 229.974 95.2615 229.966 95.1732 229.947C94.5605 229.806 94.1797 229.193 94.3204 228.581L96.1198 220.784C96.2633 220.172 96.8705 219.791 97.4859 219.932C98.0986 220.072 98.4794 220.685 98.3387 221.298L96.5393 229.094C96.4179 229.618 95.9515 229.974 95.4299 229.974Z" fill="#12173F"/>
<path d="M96.6663 207.772C96.1005 207.772 95.6065 207.347 95.5375 206.771L93.3463 188.501C93.2718 187.877 93.7161 187.311 94.3398 187.234C94.9497 187.162 95.5293 187.604 95.6038 188.23L97.795 206.5C97.8696 207.124 97.4252 207.69 96.8015 207.767C96.7574 207.77 96.7132 207.772 96.6663 207.772Z" fill="#12173F"/>
<path d="M436.976 88.8644C436.618 88.8644 436.264 88.6961 436.044 88.3787L427.469 76.1308C427.107 75.6147 427.234 74.9055 427.748 74.544C428.264 74.1852 428.973 74.3066 429.332 74.8255L437.906 87.0733C438.268 87.5894 438.141 88.2987 437.628 88.6602C437.429 88.7982 437.203 88.8644 436.976 88.8644Z" fill="#7FCACF"/>
<path d="M454.617 76.4873C454.131 76.4873 453.679 76.1726 453.529 75.6842L447.704 56.7494C447.516 56.1477 447.855 55.513 448.454 55.3253C449.067 55.1432 449.696 55.4799 449.878 56.0788L455.704 75.0135C455.892 75.6152 455.552 76.2499 454.954 76.4376C454.84 76.4707 454.73 76.4873 454.617 76.4873Z" fill="#7FCACF"/>
<path d="M63.7063 13.4704C59.9916 13.4704 56.9724 10.4485 56.9724 6.7366C56.9724 3.02471 59.9916 0 63.7063 0C67.4209 0 70.4429 3.02195 70.4429 6.7366C70.4429 10.4513 67.4182 13.4704 63.7063 13.4704ZM63.7063 2.27681C61.2501 2.27681 59.2492 4.27765 59.2492 6.7366C59.2492 9.19556 61.2473 11.1936 63.7063 11.1936C66.1652 11.1936 68.166 9.19556 68.166 6.7366C68.166 4.27765 66.1652 2.27681 63.7063 2.27681Z" fill="#7FCACF"/>
<path d="M54.7536 16.8289C54.5411 16.8289 54.3313 16.771 54.1409 16.6523L41.8295 8.8173C41.2997 8.48061 41.1424 7.77686 41.4791 7.24423C41.8185 6.71159 42.5278 6.56257 43.0521 6.89374L55.3635 14.7287C55.8934 15.0654 56.0506 15.7692 55.714 16.3018C55.4959 16.6413 55.1289 16.8289 54.7536 16.8289Z" fill="#7FCACF"/>
</svg>
