<svg width="72" height="87" viewBox="0 0 72 87" fill="none" xmlns="http://www.w3.org/2000/svg">
<mask id="mask0" mask-type="alpha" maskUnits="userSpaceOnUse" x="0" y="0" width="72" height="87">
<path d="M72 74C72 81.1797 66.1797 87 59 87H13C5.8203 87 0 81.1797 0 74V13C0 5.8203 5.8203 0 13 0H47.4401C50.5013 0 53.4644 1.0803 55.8072 3.05059L67.3672 12.7721C70.3043 15.2422 72 18.8838 72 22.7215V74Z" fill="white"/>
</mask>
<g mask="url(#mask0)">
<path d="M72 74C72 81.1797 66.1797 87 59 87H13C5.8203 87 0 81.1797 0 74V13C0 5.8203 5.8203 0 13 0H47.4401C50.5013 0 53.4644 1.0803 55.8072 3.05059L67.3672 12.7721C70.3043 15.2422 72 18.8838 72 22.7215V74Z" fill="white"/>
<path opacity="0.9" d="M57.1798 16.6682C54.4183 16.6682 52.1798 14.4296 52.1798 11.6682V-7.62939e-06L72 16.6682H57.1798Z" fill="#283071"/>
</g>
</svg>
