<svg width="522" height="213" viewBox="0 0 522 213" fill="none" xmlns="http://www.w3.org/2000/svg">
<path d="M38.304 105.28L33.936 123.136H33.168L29.136 105.28H18.48L14.448 123.136H13.68L9.312 105.28H2.88L8.928 130H19.488L23.424 112.144H24.192L28.176 130H38.736L44.736 105.28H38.304ZM58.1576 130C65.9336 130 70.1096 124.672 70.1096 117.616C70.1096 110.56 65.9336 105.28 58.1576 105.28C50.3816 105.28 46.2056 110.56 46.2056 117.616C46.2056 124.672 50.3816 130 58.1576 130ZM58.1576 123.76C53.9336 123.76 52.4456 122.416 52.4456 117.616C52.4456 112.816 53.9336 111.52 58.1576 111.52C62.3816 111.52 63.8696 112.816 63.8696 117.616C63.8696 122.416 62.3816 123.76 58.1576 123.76ZM88.6504 105.28H73.1944V130H79.4344V111.52H88.6504V105.28ZM115.926 105.28H108.438L101.958 114.544H98.4544V96.4H92.2144V130H98.4544V120.784H101.958L108.438 130H115.926L107.43 117.664L115.926 105.28ZM118.806 127.408C122.31 129.28 125.718 130 129.462 130C134.838 130 139.446 127.648 139.446 122.272C139.446 117.568 136.71 116.176 129.51 114.88C125.67 114.16 125.046 113.968 125.046 112.864C125.046 111.904 125.862 111.52 127.59 111.52C130.23 111.52 134.022 112.288 137.526 113.536V107.296C135.174 106.144 131.286 105.28 128.07 105.28C122.934 105.28 118.806 107.776 118.806 112.48C118.806 116.8 120.966 118.912 128.502 120.016C132.342 120.64 133.206 120.832 133.206 122.08C133.206 123.184 132.246 123.76 129.942 123.76C126.39 123.76 123.174 122.896 118.806 120.64V127.408ZM195.997 105.28L191.629 123.136H190.861L186.829 105.28H176.173L172.141 123.136H171.373L167.005 105.28H160.573L166.621 130H177.181L181.117 112.144H181.885L185.869 130H196.429L202.429 105.28H195.997ZM205.796 96.4V101.2H212.036V96.4H205.796ZM205.796 105.28V130H212.036V105.28H205.796ZM231.548 111.52V105.28H224.972V96.4H218.732V105.28H214.892V111.52H218.732V130H231.548V123.76H224.972V111.52H231.548ZM258.686 105.28H242.366V96.4H236.126V130H242.366V111.52H252.446V130H258.686V105.28ZM301.344 123.76V105.28H282.624V111.52H295.104V116.08C293.904 114.784 292.032 113.68 288.432 113.68C282.576 113.68 279.84 117.424 279.84 121.84C279.84 126.256 282.576 130 288.432 130C292.032 130 293.904 128.848 295.104 127.6V130H304.464V123.76H301.344ZM290.592 124.336C287.328 124.336 286.08 123.76 286.08 121.84C286.08 119.92 287.328 119.344 290.592 119.344C293.856 119.344 295.104 119.92 295.104 121.84C295.104 123.76 293.856 124.336 290.592 124.336ZM330.889 105.28H308.329V130H314.569V111.52L324.649 111.52V130H330.889V105.28ZM352.865 105.28V116.32C352.865 120.16 351.137 121.36 347.393 121.36C343.649 121.36 341.921 120.16 341.921 116.32V105.28H335.681V116.56C335.681 123.136 338.657 127.6 346.193 127.6C349.073 127.6 351.425 126.544 352.865 124.96V131.44H338.945V137.68H359.105V105.28H352.865ZM397.914 96.4V108.016C396.282 106.336 393.882 105.28 391.002 105.28C383.466 105.28 380.25 110.56 380.25 117.616C380.25 124.672 383.466 130 391.002 130C393.882 130 396.282 128.944 397.914 127.216V130H404.154V96.4H397.914ZM392.202 123.76C388.218 123.76 386.49 122.56 386.49 117.616C386.49 112.72 388.218 111.52 392.202 111.52C396.186 111.52 397.914 112.72 397.914 117.616C397.914 122.56 396.186 123.76 392.202 123.76ZM429.205 117.136C429.205 110.416 426.229 105.28 418.453 105.28C410.485 105.28 407.509 110.8 407.509 117.664C407.509 122.176 409.093 130 420.181 130C422.005 130 423.829 130 427.573 129.136V122.992C424.261 123.76 422.101 123.76 420.661 123.76C416.149 123.76 414.565 122.416 414.037 120.016H429.205V117.136ZM418.357 111.52C421.333 111.52 422.725 112.48 422.917 115.216H413.797C414.085 112.624 415.477 111.52 418.357 111.52ZM432.294 127.408C435.798 129.28 439.206 130 442.95 130C448.326 130 452.934 127.648 452.934 122.272C452.934 117.568 450.198 116.176 442.998 114.88C439.158 114.16 438.534 113.968 438.534 112.864C438.534 111.904 439.35 111.52 441.078 111.52C443.718 111.52 447.51 112.288 451.014 113.536V107.296C448.662 106.144 444.774 105.28 441.558 105.28C436.422 105.28 432.294 107.776 432.294 112.48C432.294 116.8 434.454 118.912 441.99 120.016C445.83 120.64 446.694 120.832 446.694 122.08C446.694 123.184 445.734 123.76 443.43 123.76C439.878 123.76 436.662 122.896 432.294 120.64V127.408ZM456.986 96.4V101.2H463.226V96.4H456.986ZM456.986 105.28V130H463.226V105.28H456.986ZM484.965 105.28V107.92C483.525 106.576 481.413 105.28 477.957 105.28C470.757 105.28 467.301 110.224 467.301 116.416C467.301 122.656 470.757 127.6 477.957 127.6C481.413 127.6 483.525 126.304 484.965 124.96V131.44H471.525V137.68H491.205V105.28H484.965ZM479.253 121.36C475.029 121.36 473.541 120.16 473.541 116.416C473.541 112.72 475.029 111.52 479.253 111.52C483.477 111.52 484.965 112.72 484.965 116.416C484.965 120.16 483.477 121.36 479.253 121.36ZM518.349 105.28H495.789V130H502.029V111.52H512.109V130H518.349V105.28Z" fill="white"/>
<path opacity="0.1" d="M296.391 198L295.008 194.438H294.82C293.617 195.953 292.375 197.008 291.094 197.602C289.828 198.18 288.172 198.469 286.125 198.469C283.609 198.469 281.625 197.75 280.172 196.312C278.734 194.875 278.016 192.828 278.016 190.172C278.016 187.391 278.984 185.344 280.922 184.031C282.875 182.703 285.812 181.969 289.734 181.828L294.281 181.688V180.539C294.281 177.883 292.922 176.555 290.203 176.555C288.109 176.555 285.648 177.188 282.82 178.453L280.453 173.625C283.469 172.047 286.812 171.258 290.484 171.258C294 171.258 296.695 172.023 298.57 173.555C300.445 175.086 301.383 177.414 301.383 180.539V198H296.391ZM294.281 185.859L291.516 185.953C289.438 186.016 287.891 186.391 286.875 187.078C285.859 187.766 285.352 188.812 285.352 190.219C285.352 192.234 286.508 193.242 288.82 193.242C290.477 193.242 291.797 192.766 292.781 191.812C293.781 190.859 294.281 189.594 294.281 188.016V185.859ZM331.993 198H324.845V182.695C324.845 180.805 324.509 179.391 323.837 178.453C323.165 177.5 322.095 177.023 320.626 177.023C318.626 177.023 317.181 177.695 316.29 179.039C315.399 180.367 314.954 182.578 314.954 185.672V198H307.806V171.797H313.267L314.228 175.148H314.626C315.423 173.883 316.517 172.93 317.907 172.289C319.313 171.633 320.907 171.305 322.688 171.305C325.735 171.305 328.048 172.133 329.626 173.789C331.204 175.43 331.993 177.805 331.993 180.914V198ZM334.643 171.797H342.471L347.416 186.539C347.838 187.82 348.127 189.336 348.283 191.086H348.424C348.596 189.477 348.932 187.961 349.432 186.539L354.283 171.797H361.947L350.861 201.352C349.846 204.086 348.393 206.133 346.502 207.492C344.627 208.852 342.432 209.531 339.916 209.531C338.682 209.531 337.471 209.398 336.283 209.133V203.461C337.143 203.664 338.08 203.766 339.096 203.766C340.361 203.766 341.463 203.375 342.4 202.594C343.353 201.828 344.096 200.664 344.627 199.102L345.049 197.812L334.643 171.797Z" fill="white"/>
<path opacity="0.2" d="M305.653 91.5725C306.151 91.5725 306.74 91.47 307.421 91.2649V96C305.869 96.271 304.528 96.4065 303.4 96.4065C302.06 96.4065 300.983 96.2197 300.17 95.8462C299.357 95.4653 298.742 94.905 298.325 94.1653C297.907 93.4255 297.614 92.4734 297.446 91.3088C296.611 92.8762 295.435 94.1287 293.919 95.0662C292.403 96.0037 290.488 96.4724 288.173 96.4724C286.621 96.4724 285.211 96.2527 283.944 95.8132C282.677 95.3738 281.658 94.6633 280.889 93.6819C280.12 92.6931 279.736 91.426 279.736 89.8806C279.736 87.449 280.769 85.5081 282.834 84.0579C284.899 82.6003 287.932 81.6555 291.931 81.2234C293.381 81.0549 294.923 80.9597 296.556 80.9377V79.6304C296.556 78.8101 296.318 78.1362 295.842 77.6089C295.373 77.0742 294.761 76.686 294.007 76.4443C293.253 76.2026 292.447 76.0818 291.59 76.0818C290.609 76.0818 289.711 76.2246 288.898 76.5103C288.093 76.7886 287.445 77.2207 286.954 77.8066C286.47 78.3853 286.229 79.1104 286.229 79.9819H280C280.344 77.0962 281.534 75.0271 283.57 73.7747C285.606 72.5149 288.4 71.885 291.953 71.885C295.219 71.885 297.889 72.5002 299.962 73.7307C302.034 74.9612 303.071 77.1694 303.071 80.3555V87.7712C303.071 88.9797 303.261 89.9172 303.642 90.5837C304.023 91.2429 304.693 91.5725 305.653 91.5725ZM290.524 92.6272C291.887 92.6272 293.044 92.2646 293.996 91.5396C294.956 90.8145 295.677 89.8037 296.16 88.5073C296.651 87.2109 296.896 85.7058 296.896 83.9919H296.358C294.923 83.9919 293.641 84.1091 292.513 84.3435C290.491 84.6218 288.946 85.1748 287.877 86.0024C286.807 86.8301 286.273 87.9141 286.273 89.2544C286.273 90.375 286.65 91.2173 287.404 91.7812C288.166 92.3452 289.206 92.6272 290.524 92.6272ZM325.209 71.863C327.245 71.863 328.992 72.1853 330.45 72.8298C331.914 73.467 333.031 74.4009 333.8 75.6313C334.577 76.8545 334.965 78.334 334.965 80.0698V96H328.099V81.6958C328.099 80.0186 327.641 78.7991 326.725 78.0374C325.81 77.2756 324.616 76.8948 323.144 76.8948C322.008 76.8948 320.987 77.0889 320.079 77.4771C319.178 77.8652 318.453 78.4951 317.903 79.3667C317.361 80.2383 317.087 81.3699 317.079 82.7615V96H310.213V72.3245H316.2L316.827 76.5542C317.566 75.0015 318.643 73.8333 320.057 73.0496C321.47 72.2585 323.188 71.863 325.209 71.863ZM363.036 72.3245L352.28 98.1313C351.328 100.38 350.405 102.046 349.512 103.13C348.618 104.214 347.534 104.958 346.26 105.36C344.993 105.763 343.231 105.965 340.975 105.965H338.438V100.999H340.547C341.675 100.999 342.557 100.893 343.195 100.68C343.839 100.468 344.388 100.083 344.843 99.5266C345.304 98.9773 345.784 98.1387 346.282 97.0107L346.381 96.78L336.295 72.3245H343.711L349.49 89.8696L356.038 72.3245H363.036Z" fill="white"/>
<path opacity="0.1" d="M306.605 64.8369C306.253 64.8369 305.613 64.4287 304.685 63.6123C303.85 62.8516 303.229 62.1743 302.82 61.5806C301.039 62.5454 299.471 63.269 298.117 63.7515C296.762 64.2524 295.63 64.5029 294.721 64.5029C290.379 64.5029 287.216 63.2783 285.23 60.8291C283.356 58.5283 282.419 55.0029 282.419 50.2529C282.419 45.7627 283.959 41.9219 287.04 38.7305C290.138 35.5391 293.831 33.9434 298.117 33.9434C299.731 33.9434 301.54 34.3608 303.544 35.1958C306.067 36.2349 307.329 37.4873 307.329 38.9531C307.329 39.4541 307.144 39.8994 306.772 40.2891C306.587 40.9941 306.438 42.1538 306.327 43.7681C306.234 45.3823 306.179 47.4512 306.16 49.9746C306.142 52.2754 306.299 54.0938 306.633 55.4297C306.819 56.2461 307.403 57.8789 308.387 60.3281C308.517 60.6621 308.73 61.1538 309.027 61.8032L309.194 62.2764C309.194 63.0186 308.934 63.6309 308.415 64.1133C307.895 64.5957 307.292 64.8369 306.605 64.8369ZM300.816 45.4937C300.816 44.6958 300.863 43.833 300.956 42.9053C301.067 41.959 301.225 40.957 301.429 39.8994C300.742 39.5469 300.148 39.2871 299.647 39.1201C299.165 38.9531 298.775 38.8696 298.479 38.8696C295.603 38.8696 293.116 40.0479 291.02 42.4043C288.941 44.7422 287.902 47.4419 287.902 50.5034C287.902 53.5464 288.44 55.8286 289.517 57.3501C290.593 58.8716 292.207 59.6323 294.359 59.6323C296.141 59.6323 297.653 59.3076 298.896 58.6582C299.564 58.3057 300.501 57.6006 301.707 56.543C301.113 51.626 300.816 47.9429 300.816 45.4937ZM334.244 64.9761C332.648 64.9761 331.748 64.104 331.544 62.3599L330.765 56.2646C330.505 54.0938 330.375 52.062 330.375 50.1694C330.375 49.6499 330.403 48.7686 330.459 47.5254C330.533 46.2822 330.57 45.4009 330.57 44.8813C330.57 40.8735 329.828 38.8696 328.343 38.8696C326.265 38.8696 324.28 40.1035 322.387 42.5713C320.68 44.8164 319.344 47.6553 318.38 51.0879C318.342 51.8115 318.259 52.7207 318.129 53.8154C318.018 54.7432 317.962 55.6431 317.962 56.5151C317.962 57.0718 318.018 57.9067 318.129 59.02C318.24 60.1333 318.296 60.9683 318.296 61.5249C318.296 62.3599 318.036 63.0371 317.517 63.5566C317.016 64.0762 316.366 64.3359 315.568 64.3359C314.752 64.3359 314.093 64.0762 313.592 63.5566C313.091 63.0371 312.841 62.3599 312.841 61.5249C312.841 60.9683 312.776 60.1333 312.646 59.02C312.535 57.9067 312.479 57.0718 312.479 56.5151C312.479 54.604 312.609 51.96 312.869 48.583C313.147 45.1875 313.286 42.5342 313.286 40.623C313.286 40.0293 313.249 39.1479 313.175 37.979C313.119 36.8101 313.091 35.9287 313.091 35.335C313.091 34.5371 313.351 33.8877 313.871 33.3867C314.409 32.8672 315.068 32.6074 315.847 32.6074C317.554 32.6074 318.491 33.8135 318.658 36.2256L318.741 39.4819C321.859 35.3257 325.059 33.2476 328.343 33.2476C331.312 33.2476 333.381 34.5557 334.55 37.1719C335.348 38.916 335.784 41.4951 335.858 44.9092V47.7202L335.83 50.3086C335.83 51.8486 336.025 53.8433 336.415 56.2925C336.823 58.7231 337.027 60.6992 337.027 62.2207C337.027 63.0371 336.758 63.6958 336.22 64.1968C335.7 64.7163 335.042 64.9761 334.244 64.9761ZM365.862 38.1738L356.232 58.9922C353.857 64.0576 352.039 68.2974 350.777 71.7114L348.94 77.1108C348.458 78.4468 347.623 79.1147 346.435 79.1147C345.656 79.1147 344.979 78.855 344.404 78.3354C343.847 77.8345 343.569 77.2036 343.569 76.4429C343.569 74.5874 345.573 69.2158 349.58 60.3281L339.616 41.1519L338.364 39.1201C337.863 38.2666 337.613 37.5522 337.613 36.9771C337.613 36.2163 337.9 35.5483 338.475 34.9731C339.069 34.3979 339.728 34.1104 340.451 34.1104C341.305 34.1104 341.964 34.4351 342.428 35.0845C345.582 39.4634 348.968 45.6978 352.586 53.7876L356.705 44.1855C358.19 40.8643 359.618 38.0068 360.991 35.6133C361.585 34.5742 362.365 34.0547 363.329 34.0547C364.09 34.0547 364.758 34.3237 365.333 34.8618C365.927 35.3999 366.224 36.04 366.224 36.7822C366.224 37.1904 366.103 37.6543 365.862 38.1738Z" fill="white"/>
<path opacity="0.2" d="M278.632 150C278.632 156.816 283.528 162.528 289.912 162.528C293.224 162.528 295.768 160.848 296.824 159.312V162H303.4V138H296.824V140.688C295.768 139.152 293.224 137.472 289.912 137.472C283.528 137.472 278.632 143.184 278.632 150ZM297.352 150C297.352 153.744 294.904 156.528 291.304 156.528C287.704 156.528 285.256 153.744 285.256 150C285.256 146.256 287.704 143.472 291.304 143.472C294.904 143.472 297.352 146.256 297.352 150ZM308.833 162H315.409V150.288C315.409 145.68 317.713 143.472 320.737 143.472C323.473 143.472 324.961 145.584 324.961 149.04V162H331.537V147.936C331.537 141.696 328.081 137.472 322.273 137.472C319.153 137.472 316.657 138.816 315.409 140.736V138H308.833V162ZM345.024 172.032L360.096 138H352.848L346.464 153.552L340.032 138H332.832L342.912 160.656L337.872 172.032H345.024Z" fill="white"/>
</svg>
